<mxfile host="app.diagrams.net" modified="2024-06-11T08:53:32.466Z" agent="Mozilla/5.0 (X11; Linux x86_64) AppleWebKit/537.36 (KHTML, like Gecko) Chrome/125.0.0.0 Safari/537.36" etag="pqWNF1OXQTNxcUy3O9oW" version="24.5.2" type="device" pages="3">
  <diagram name="Page-1" id="2piuDJfm8pAf-pfTfW_2">
    <mxGraphModel dx="4947" dy="5286" grid="1" gridSize="10" guides="1" tooltips="1" connect="1" arrows="1" fold="1" page="1" pageScale="1" pageWidth="850" pageHeight="1100" math="0" shadow="0">
      <root>
        <mxCell id="0" />
        <mxCell id="1" parent="0" />
        <mxCell id="Rs90OMZWczZKTLAyJQ_O-78" value="" style="rounded=0;whiteSpace=wrap;html=1;" parent="1" vertex="1">
          <mxGeometry x="-710" y="-2720" width="1035" height="1650" as="geometry" />
        </mxCell>
        <mxCell id="Rs90OMZWczZKTLAyJQ_O-6" style="edgeStyle=orthogonalEdgeStyle;rounded=0;orthogonalLoop=1;jettySize=auto;html=1;curved=1;" parent="1" source="Rs90OMZWczZKTLAyJQ_O-1" target="Rs90OMZWczZKTLAyJQ_O-5" edge="1">
          <mxGeometry relative="1" as="geometry">
            <Array as="points">
              <mxPoint x="-475" y="-2445" />
              <mxPoint x="-475" y="-2445" />
            </Array>
          </mxGeometry>
        </mxCell>
        <mxCell id="Rs90OMZWczZKTLAyJQ_O-1" value="Payroll Admin" style="shape=umlActor;verticalLabelPosition=bottom;verticalAlign=top;html=1;fillColor=#e1d5e7;strokeColor=#9673a6;" parent="1" vertex="1">
          <mxGeometry x="-655" y="-2510" width="70" height="130" as="geometry" />
        </mxCell>
        <mxCell id="Rs90OMZWczZKTLAyJQ_O-4" value="Interfaces" style="shape=umlFrame;whiteSpace=wrap;html=1;pointerEvents=0;fillColor=#ffe6cc;strokeColor=#d79b00;" parent="1" vertex="1">
          <mxGeometry x="-445" y="-2610" width="270" height="1430" as="geometry" />
        </mxCell>
        <mxCell id="Rs90OMZWczZKTLAyJQ_O-12" style="edgeStyle=orthogonalEdgeStyle;rounded=0;orthogonalLoop=1;jettySize=auto;html=1;exitX=1;exitY=0.5;exitDx=0;exitDy=0;entryX=0;entryY=0.5;entryDx=0;entryDy=0;curved=1;" parent="1" source="Rs90OMZWczZKTLAyJQ_O-5" target="Rs90OMZWczZKTLAyJQ_O-8" edge="1">
          <mxGeometry relative="1" as="geometry" />
        </mxCell>
        <mxCell id="Rs90OMZWczZKTLAyJQ_O-13" style="edgeStyle=orthogonalEdgeStyle;rounded=0;orthogonalLoop=1;jettySize=auto;html=1;exitX=0.5;exitY=1;exitDx=0;exitDy=0;entryX=0;entryY=0.5;entryDx=0;entryDy=0;curved=1;" parent="1" source="Rs90OMZWczZKTLAyJQ_O-5" target="Rs90OMZWczZKTLAyJQ_O-10" edge="1">
          <mxGeometry relative="1" as="geometry" />
        </mxCell>
        <mxCell id="Rs90OMZWczZKTLAyJQ_O-14" style="edgeStyle=orthogonalEdgeStyle;rounded=0;orthogonalLoop=1;jettySize=auto;html=1;exitX=0.5;exitY=0;exitDx=0;exitDy=0;curved=1;" parent="1" source="Rs90OMZWczZKTLAyJQ_O-5" target="Rs90OMZWczZKTLAyJQ_O-9" edge="1">
          <mxGeometry relative="1" as="geometry" />
        </mxCell>
        <mxCell id="Rs90OMZWczZKTLAyJQ_O-5" value="Payroll Processing" style="ellipse;whiteSpace=wrap;html=1;fillColor=#d5e8d4;strokeColor=#82b366;" parent="1" vertex="1">
          <mxGeometry x="-365" y="-2485" width="120" height="80" as="geometry" />
        </mxCell>
        <mxCell id="Rs90OMZWczZKTLAyJQ_O-7" value="Actions" style="shape=umlFrame;whiteSpace=wrap;html=1;pointerEvents=0;fillColor=#dae8fc;strokeColor=#6c8ebf;" parent="1" vertex="1">
          <mxGeometry x="-155" y="-2610" width="360" height="1440" as="geometry" />
        </mxCell>
        <mxCell id="Rs90OMZWczZKTLAyJQ_O-8" value="Calculate Salaries" style="ellipse;whiteSpace=wrap;html=1;fillColor=#f8cecc;strokeColor=#b85450;" parent="1" vertex="1">
          <mxGeometry x="-80" y="-2590" width="120" height="80" as="geometry" />
        </mxCell>
        <mxCell id="Rs90OMZWczZKTLAyJQ_O-9" value="Process deductions and taxes" style="ellipse;whiteSpace=wrap;html=1;fillColor=#f8cecc;strokeColor=#b85450;" parent="1" vertex="1">
          <mxGeometry x="35" y="-2520" width="120" height="80" as="geometry" />
        </mxCell>
        <mxCell id="Rs90OMZWczZKTLAyJQ_O-10" value="Generate Payslips" style="ellipse;whiteSpace=wrap;html=1;fillColor=#f8cecc;strokeColor=#b85450;" parent="1" vertex="1">
          <mxGeometry x="-105" y="-2470" width="120" height="80" as="geometry" />
        </mxCell>
        <mxCell id="Rs90OMZWczZKTLAyJQ_O-11" value="Facilitate direct deposits" style="ellipse;whiteSpace=wrap;html=1;fillColor=#f8cecc;strokeColor=#b85450;" parent="1" vertex="1">
          <mxGeometry x="-5" y="-2390" width="120" height="80" as="geometry" />
        </mxCell>
        <mxCell id="Rs90OMZWczZKTLAyJQ_O-15" style="edgeStyle=orthogonalEdgeStyle;rounded=0;orthogonalLoop=1;jettySize=auto;html=1;exitX=1;exitY=1;exitDx=0;exitDy=0;entryX=0;entryY=0.625;entryDx=0;entryDy=0;entryPerimeter=0;curved=1;" parent="1" source="Rs90OMZWczZKTLAyJQ_O-5" target="Rs90OMZWczZKTLAyJQ_O-11" edge="1">
          <mxGeometry relative="1" as="geometry" />
        </mxCell>
        <mxCell id="Rs90OMZWczZKTLAyJQ_O-18" style="edgeStyle=orthogonalEdgeStyle;rounded=0;orthogonalLoop=1;jettySize=auto;html=1;entryX=0;entryY=0.5;entryDx=0;entryDy=0;" parent="1" source="Rs90OMZWczZKTLAyJQ_O-16" target="Rs90OMZWczZKTLAyJQ_O-17" edge="1">
          <mxGeometry relative="1" as="geometry" />
        </mxCell>
        <mxCell id="Rs90OMZWczZKTLAyJQ_O-16" value="Compliance officer" style="shape=umlActor;verticalLabelPosition=bottom;verticalAlign=top;html=1;fillColor=#e1d5e7;strokeColor=#9673a6;" parent="1" vertex="1">
          <mxGeometry x="-655" y="-2250" width="70" height="130" as="geometry" />
        </mxCell>
        <mxCell id="Rs90OMZWczZKTLAyJQ_O-23" style="edgeStyle=orthogonalEdgeStyle;rounded=0;orthogonalLoop=1;jettySize=auto;html=1;exitX=1;exitY=0;exitDx=0;exitDy=0;curved=1;" parent="1" source="Rs90OMZWczZKTLAyJQ_O-17" target="Rs90OMZWczZKTLAyJQ_O-22" edge="1">
          <mxGeometry relative="1" as="geometry" />
        </mxCell>
        <mxCell id="Rs90OMZWczZKTLAyJQ_O-24" style="edgeStyle=orthogonalEdgeStyle;rounded=0;orthogonalLoop=1;jettySize=auto;html=1;exitX=1;exitY=0.5;exitDx=0;exitDy=0;entryX=0;entryY=0.5;entryDx=0;entryDy=0;curved=1;" parent="1" source="Rs90OMZWczZKTLAyJQ_O-17" target="Rs90OMZWczZKTLAyJQ_O-19" edge="1">
          <mxGeometry relative="1" as="geometry" />
        </mxCell>
        <mxCell id="Rs90OMZWczZKTLAyJQ_O-26" style="edgeStyle=orthogonalEdgeStyle;rounded=0;orthogonalLoop=1;jettySize=auto;html=1;exitX=1;exitY=1;exitDx=0;exitDy=0;curved=1;" parent="1" source="Rs90OMZWczZKTLAyJQ_O-17" target="Rs90OMZWczZKTLAyJQ_O-21" edge="1">
          <mxGeometry relative="1" as="geometry" />
        </mxCell>
        <mxCell id="Rs90OMZWczZKTLAyJQ_O-17" value="Compliance Monitoring and reporting" style="ellipse;whiteSpace=wrap;html=1;fillColor=#d5e8d4;strokeColor=#82b366;" parent="1" vertex="1">
          <mxGeometry x="-365" y="-2225" width="120" height="80" as="geometry" />
        </mxCell>
        <mxCell id="Rs90OMZWczZKTLAyJQ_O-19" value="Monitor compliance" style="ellipse;whiteSpace=wrap;html=1;fillColor=#fff2cc;strokeColor=#d6b656;" parent="1" vertex="1">
          <mxGeometry x="-135" y="-2140" width="120" height="80" as="geometry" />
        </mxCell>
        <mxCell id="Rs90OMZWczZKTLAyJQ_O-20" value="Update compliance status" style="ellipse;whiteSpace=wrap;html=1;fillColor=#fff2cc;strokeColor=#d6b656;" parent="1" vertex="1">
          <mxGeometry x="-80" y="-2010" width="120" height="80" as="geometry" />
        </mxCell>
        <mxCell id="Rs90OMZWczZKTLAyJQ_O-21" value="Ensure policy adherence" style="ellipse;whiteSpace=wrap;html=1;fillColor=#fff2cc;strokeColor=#d6b656;" parent="1" vertex="1">
          <mxGeometry x="65" y="-2090" width="120" height="80" as="geometry" />
        </mxCell>
        <mxCell id="Rs90OMZWczZKTLAyJQ_O-22" value="Generate compliance reports" style="ellipse;whiteSpace=wrap;html=1;fillColor=#fff2cc;strokeColor=#d6b656;" parent="1" vertex="1">
          <mxGeometry x="25" y="-2265" width="120" height="80" as="geometry" />
        </mxCell>
        <mxCell id="Rs90OMZWczZKTLAyJQ_O-25" style="edgeStyle=orthogonalEdgeStyle;rounded=0;orthogonalLoop=1;jettySize=auto;html=1;exitX=0.5;exitY=1;exitDx=0;exitDy=0;entryX=0.008;entryY=0.604;entryDx=0;entryDy=0;entryPerimeter=0;curved=1;" parent="1" source="Rs90OMZWczZKTLAyJQ_O-17" target="Rs90OMZWczZKTLAyJQ_O-20" edge="1">
          <mxGeometry relative="1" as="geometry" />
        </mxCell>
        <mxCell id="Rs90OMZWczZKTLAyJQ_O-55" style="edgeStyle=orthogonalEdgeStyle;rounded=0;orthogonalLoop=1;jettySize=auto;html=1;entryX=0;entryY=0.5;entryDx=0;entryDy=0;" parent="1" source="Rs90OMZWczZKTLAyJQ_O-51" target="Rs90OMZWczZKTLAyJQ_O-53" edge="1">
          <mxGeometry relative="1" as="geometry" />
        </mxCell>
        <mxCell id="Rs90OMZWczZKTLAyJQ_O-51" value="HR Professional" style="shape=umlActor;verticalLabelPosition=bottom;verticalAlign=top;html=1;fillColor=#e1d5e7;strokeColor=#9673a6;" parent="1" vertex="1">
          <mxGeometry x="-655" y="-1850" width="70" height="130" as="geometry" />
        </mxCell>
        <mxCell id="Rs90OMZWczZKTLAyJQ_O-57" style="edgeStyle=orthogonalEdgeStyle;rounded=0;orthogonalLoop=1;jettySize=auto;html=1;entryX=0;entryY=0.5;entryDx=0;entryDy=0;" parent="1" source="Rs90OMZWczZKTLAyJQ_O-52" target="Rs90OMZWczZKTLAyJQ_O-54" edge="1">
          <mxGeometry relative="1" as="geometry" />
        </mxCell>
        <mxCell id="Rs90OMZWczZKTLAyJQ_O-52" value="HR Administrator" style="shape=umlActor;verticalLabelPosition=bottom;verticalAlign=top;html=1;fillColor=#e1d5e7;strokeColor=#9673a6;" parent="1" vertex="1">
          <mxGeometry x="-655" y="-1520" width="70" height="130" as="geometry" />
        </mxCell>
        <mxCell id="Rs90OMZWczZKTLAyJQ_O-68" style="edgeStyle=orthogonalEdgeStyle;rounded=0;orthogonalLoop=1;jettySize=auto;html=1;exitX=0.5;exitY=0;exitDx=0;exitDy=0;curved=1;" parent="1" source="Rs90OMZWczZKTLAyJQ_O-53" target="Rs90OMZWczZKTLAyJQ_O-63" edge="1">
          <mxGeometry relative="1" as="geometry" />
        </mxCell>
        <mxCell id="Rs90OMZWczZKTLAyJQ_O-69" style="edgeStyle=orthogonalEdgeStyle;rounded=0;orthogonalLoop=1;jettySize=auto;html=1;exitX=1;exitY=0.5;exitDx=0;exitDy=0;entryX=0;entryY=0.5;entryDx=0;entryDy=0;curved=1;" parent="1" source="Rs90OMZWczZKTLAyJQ_O-53" target="Rs90OMZWczZKTLAyJQ_O-60" edge="1">
          <mxGeometry relative="1" as="geometry" />
        </mxCell>
        <mxCell id="Rs90OMZWczZKTLAyJQ_O-70" style="edgeStyle=orthogonalEdgeStyle;rounded=0;orthogonalLoop=1;jettySize=auto;html=1;exitX=1;exitY=1;exitDx=0;exitDy=0;curved=1;" parent="1" source="Rs90OMZWczZKTLAyJQ_O-53" target="Rs90OMZWczZKTLAyJQ_O-62" edge="1">
          <mxGeometry relative="1" as="geometry" />
        </mxCell>
        <mxCell id="Rs90OMZWczZKTLAyJQ_O-72" style="edgeStyle=orthogonalEdgeStyle;rounded=0;orthogonalLoop=1;jettySize=auto;html=1;exitX=0;exitY=1;exitDx=0;exitDy=0;entryX=0;entryY=0.5;entryDx=0;entryDy=0;curved=1;" parent="1" source="Rs90OMZWczZKTLAyJQ_O-53" target="Rs90OMZWczZKTLAyJQ_O-61" edge="1">
          <mxGeometry relative="1" as="geometry" />
        </mxCell>
        <mxCell id="Rs90OMZWczZKTLAyJQ_O-53" value="Conduct performance evaluation" style="ellipse;whiteSpace=wrap;html=1;fillColor=#d5e8d4;strokeColor=#82b366;" parent="1" vertex="1">
          <mxGeometry x="-365" y="-1825" width="120" height="80" as="geometry" />
        </mxCell>
        <mxCell id="Rs90OMZWczZKTLAyJQ_O-73" style="edgeStyle=orthogonalEdgeStyle;rounded=0;orthogonalLoop=1;jettySize=auto;html=1;exitX=0.5;exitY=0;exitDx=0;exitDy=0;entryX=0;entryY=0;entryDx=0;entryDy=0;curved=1;" parent="1" source="Rs90OMZWczZKTLAyJQ_O-54" target="Rs90OMZWczZKTLAyJQ_O-65" edge="1">
          <mxGeometry relative="1" as="geometry" />
        </mxCell>
        <mxCell id="Rs90OMZWczZKTLAyJQ_O-74" style="edgeStyle=orthogonalEdgeStyle;rounded=0;orthogonalLoop=1;jettySize=auto;html=1;exitX=1;exitY=0.5;exitDx=0;exitDy=0;entryX=0;entryY=0.5;entryDx=0;entryDy=0;curved=1;" parent="1" source="Rs90OMZWczZKTLAyJQ_O-54" target="Rs90OMZWczZKTLAyJQ_O-66" edge="1">
          <mxGeometry relative="1" as="geometry" />
        </mxCell>
        <mxCell id="Rs90OMZWczZKTLAyJQ_O-75" style="edgeStyle=orthogonalEdgeStyle;rounded=0;orthogonalLoop=1;jettySize=auto;html=1;exitX=0;exitY=1;exitDx=0;exitDy=0;entryX=0;entryY=1;entryDx=0;entryDy=0;curved=1;" parent="1" source="Rs90OMZWczZKTLAyJQ_O-54" target="Rs90OMZWczZKTLAyJQ_O-64" edge="1">
          <mxGeometry relative="1" as="geometry" />
        </mxCell>
        <mxCell id="Rs90OMZWczZKTLAyJQ_O-76" style="edgeStyle=orthogonalEdgeStyle;rounded=0;orthogonalLoop=1;jettySize=auto;html=1;exitX=0;exitY=1;exitDx=0;exitDy=0;entryX=0;entryY=0.5;entryDx=0;entryDy=0;curved=1;" parent="1" source="Rs90OMZWczZKTLAyJQ_O-54" target="Rs90OMZWczZKTLAyJQ_O-67" edge="1">
          <mxGeometry relative="1" as="geometry" />
        </mxCell>
        <mxCell id="Rs90OMZWczZKTLAyJQ_O-54" value="Manage training programs" style="ellipse;whiteSpace=wrap;html=1;fillColor=#d5e8d4;strokeColor=#82b366;" parent="1" vertex="1">
          <mxGeometry x="-365" y="-1495" width="120" height="80" as="geometry" />
        </mxCell>
        <mxCell id="Rs90OMZWczZKTLAyJQ_O-60" value="Set goals" style="ellipse;whiteSpace=wrap;html=1;fillColor=#f8cecc;strokeColor=#b85450;" parent="1" vertex="1">
          <mxGeometry x="-115" y="-1790" width="120" height="80" as="geometry" />
        </mxCell>
        <mxCell id="Rs90OMZWczZKTLAyJQ_O-61" value="Generate performance report" style="ellipse;whiteSpace=wrap;html=1;fillColor=#f8cecc;strokeColor=#b85450;" parent="1" vertex="1">
          <mxGeometry x="-105" y="-1640" width="120" height="80" as="geometry" />
        </mxCell>
        <mxCell id="Rs90OMZWczZKTLAyJQ_O-62" value="Provide feedback" style="ellipse;whiteSpace=wrap;html=1;fillColor=#f8cecc;strokeColor=#b85450;" parent="1" vertex="1">
          <mxGeometry x="55" y="-1710" width="120" height="80" as="geometry" />
        </mxCell>
        <mxCell id="Rs90OMZWczZKTLAyJQ_O-63" value="Conduct evaluation" style="ellipse;whiteSpace=wrap;html=1;fillColor=#f8cecc;strokeColor=#b85450;" parent="1" vertex="1">
          <mxGeometry x="55" y="-1870" width="120" height="80" as="geometry" />
        </mxCell>
        <mxCell id="Rs90OMZWczZKTLAyJQ_O-64" value="Track participation" style="ellipse;whiteSpace=wrap;html=1;fillColor=#fff2cc;strokeColor=#d6b656;" parent="1" vertex="1">
          <mxGeometry x="-125" y="-1300" width="120" height="80" as="geometry" />
        </mxCell>
        <mxCell id="Rs90OMZWczZKTLAyJQ_O-65" value="Access training resources" style="ellipse;whiteSpace=wrap;html=1;fillColor=#fff2cc;strokeColor=#d6b656;" parent="1" vertex="1">
          <mxGeometry x="55" y="-1510" width="120" height="80" as="geometry" />
        </mxCell>
        <mxCell id="Rs90OMZWczZKTLAyJQ_O-66" value="Schedule training session" style="ellipse;whiteSpace=wrap;html=1;fillColor=#fff2cc;strokeColor=#d6b656;" parent="1" vertex="1">
          <mxGeometry x="-95" y="-1450" width="120" height="80" as="geometry" />
        </mxCell>
        <mxCell id="Rs90OMZWczZKTLAyJQ_O-67" value="Monitor progress" style="ellipse;whiteSpace=wrap;html=1;fillColor=#fff2cc;strokeColor=#d6b656;" parent="1" vertex="1">
          <mxGeometry x="55" y="-1320" width="120" height="80" as="geometry" />
        </mxCell>
        <mxCell id="Rs90OMZWczZKTLAyJQ_O-79" value="&lt;font style=&quot;font-size: 41px;&quot;&gt;HRMS&lt;/font&gt;" style="text;strokeColor=none;fillColor=none;html=1;fontSize=24;fontStyle=1;verticalAlign=middle;align=center;" parent="1" vertex="1">
          <mxGeometry x="-235" y="-2700" width="100" height="40" as="geometry" />
        </mxCell>
      </root>
    </mxGraphModel>
  </diagram>
  <diagram id="i036hxP9MaxmPipC3wCo" name="Page-3">
    <mxGraphModel dx="3187" dy="1544" grid="1" gridSize="10" guides="1" tooltips="1" connect="1" arrows="1" fold="1" page="1" pageScale="1" pageWidth="850" pageHeight="1100" math="0" shadow="0">
      <root>
        <mxCell id="0" />
        <mxCell id="1" parent="0" />
        <mxCell id="jaVfIYYKMAJsXnhKlcQG-1" value="" style="rounded=0;whiteSpace=wrap;html=1;" vertex="1" parent="1">
          <mxGeometry x="100" y="490" width="1035" height="1650" as="geometry" />
        </mxCell>
        <mxCell id="jaVfIYYKMAJsXnhKlcQG-2" style="edgeStyle=orthogonalEdgeStyle;rounded=0;orthogonalLoop=1;jettySize=auto;html=1;curved=1;" edge="1" parent="1" source="jaVfIYYKMAJsXnhKlcQG-5" target="jaVfIYYKMAJsXnhKlcQG-10">
          <mxGeometry relative="1" as="geometry">
            <Array as="points">
              <mxPoint x="342.5" y="765" />
              <mxPoint x="342.5" y="765" />
            </Array>
          </mxGeometry>
        </mxCell>
        <mxCell id="jaVfIYYKMAJsXnhKlcQG-3" style="edgeStyle=orthogonalEdgeStyle;rounded=0;orthogonalLoop=1;jettySize=auto;html=1;entryX=0;entryY=0.5;entryDx=0;entryDy=0;curved=1;" edge="1" parent="1" target="jaVfIYYKMAJsXnhKlcQG-26">
          <mxGeometry relative="1" as="geometry">
            <mxPoint x="227.5" y="809.9976190476191" as="sourcePoint" />
            <mxPoint x="447.5" y="1069.9499999999998" as="targetPoint" />
          </mxGeometry>
        </mxCell>
        <mxCell id="jaVfIYYKMAJsXnhKlcQG-4" style="edgeStyle=orthogonalEdgeStyle;rounded=0;orthogonalLoop=1;jettySize=auto;html=1;entryX=0;entryY=0;entryDx=0;entryDy=0;curved=1;" edge="1" parent="1" source="jaVfIYYKMAJsXnhKlcQG-5" target="jaVfIYYKMAJsXnhKlcQG-36">
          <mxGeometry relative="1" as="geometry" />
        </mxCell>
        <mxCell id="jaVfIYYKMAJsXnhKlcQG-5" value="HR Manager" style="shape=umlActor;verticalLabelPosition=bottom;verticalAlign=top;html=1;fillColor=#e1d5e7;strokeColor=#9673a6;" vertex="1" parent="1">
          <mxGeometry x="162.5" y="700" width="70" height="130" as="geometry" />
        </mxCell>
        <mxCell id="jaVfIYYKMAJsXnhKlcQG-6" value="Interfaces" style="shape=umlFrame;whiteSpace=wrap;html=1;pointerEvents=0;fillColor=#ffe6cc;strokeColor=#d79b00;" vertex="1" parent="1">
          <mxGeometry x="372.5" y="600" width="270" height="1430" as="geometry" />
        </mxCell>
        <mxCell id="jaVfIYYKMAJsXnhKlcQG-7" style="edgeStyle=orthogonalEdgeStyle;rounded=0;orthogonalLoop=1;jettySize=auto;html=1;exitX=1;exitY=0.5;exitDx=0;exitDy=0;entryX=0;entryY=0.5;entryDx=0;entryDy=0;curved=1;" edge="1" parent="1" source="jaVfIYYKMAJsXnhKlcQG-10" target="jaVfIYYKMAJsXnhKlcQG-12">
          <mxGeometry relative="1" as="geometry" />
        </mxCell>
        <mxCell id="jaVfIYYKMAJsXnhKlcQG-8" style="edgeStyle=orthogonalEdgeStyle;rounded=0;orthogonalLoop=1;jettySize=auto;html=1;exitX=0.5;exitY=1;exitDx=0;exitDy=0;entryX=0;entryY=0.5;entryDx=0;entryDy=0;curved=1;" edge="1" parent="1" source="jaVfIYYKMAJsXnhKlcQG-10" target="jaVfIYYKMAJsXnhKlcQG-14">
          <mxGeometry relative="1" as="geometry" />
        </mxCell>
        <mxCell id="jaVfIYYKMAJsXnhKlcQG-9" style="edgeStyle=orthogonalEdgeStyle;rounded=0;orthogonalLoop=1;jettySize=auto;html=1;exitX=0.5;exitY=0;exitDx=0;exitDy=0;curved=1;" edge="1" parent="1" source="jaVfIYYKMAJsXnhKlcQG-10" target="jaVfIYYKMAJsXnhKlcQG-13">
          <mxGeometry relative="1" as="geometry" />
        </mxCell>
        <mxCell id="jaVfIYYKMAJsXnhKlcQG-10" value="Update employee information" style="ellipse;whiteSpace=wrap;html=1;fillColor=#d5e8d4;strokeColor=#82b366;" vertex="1" parent="1">
          <mxGeometry x="447.5" y="725" width="120" height="80" as="geometry" />
        </mxCell>
        <mxCell id="jaVfIYYKMAJsXnhKlcQG-11" value="Actions" style="shape=umlFrame;whiteSpace=wrap;html=1;pointerEvents=0;fillColor=#dae8fc;strokeColor=#6c8ebf;" vertex="1" parent="1">
          <mxGeometry x="662.5" y="600" width="360" height="1440" as="geometry" />
        </mxCell>
        <mxCell id="jaVfIYYKMAJsXnhKlcQG-12" value="Access employee records" style="ellipse;whiteSpace=wrap;html=1;fillColor=#fff2cc;strokeColor=#d6b656;" vertex="1" parent="1">
          <mxGeometry x="737.5" y="620" width="120" height="80" as="geometry" />
        </mxCell>
        <mxCell id="jaVfIYYKMAJsXnhKlcQG-13" value="Edit employee information" style="ellipse;whiteSpace=wrap;html=1;fillColor=#fff2cc;strokeColor=#d6b656;" vertex="1" parent="1">
          <mxGeometry x="852.5" y="690" width="120" height="80" as="geometry" />
        </mxCell>
        <mxCell id="jaVfIYYKMAJsXnhKlcQG-14" value="Save changes" style="ellipse;whiteSpace=wrap;html=1;fillColor=#fff2cc;strokeColor=#d6b656;" vertex="1" parent="1">
          <mxGeometry x="712.5" y="740" width="120" height="80" as="geometry" />
        </mxCell>
        <mxCell id="jaVfIYYKMAJsXnhKlcQG-15" value="Notify employee" style="ellipse;whiteSpace=wrap;html=1;fillColor=#fff2cc;strokeColor=#d6b656;" vertex="1" parent="1">
          <mxGeometry x="812.5" y="820" width="120" height="80" as="geometry" />
        </mxCell>
        <mxCell id="jaVfIYYKMAJsXnhKlcQG-16" style="edgeStyle=orthogonalEdgeStyle;rounded=0;orthogonalLoop=1;jettySize=auto;html=1;exitX=1;exitY=1;exitDx=0;exitDy=0;entryX=0;entryY=0.625;entryDx=0;entryDy=0;entryPerimeter=0;curved=1;" edge="1" parent="1" source="jaVfIYYKMAJsXnhKlcQG-10" target="jaVfIYYKMAJsXnhKlcQG-15">
          <mxGeometry relative="1" as="geometry" />
        </mxCell>
        <mxCell id="jaVfIYYKMAJsXnhKlcQG-17" style="edgeStyle=orthogonalEdgeStyle;rounded=0;orthogonalLoop=1;jettySize=auto;html=1;entryX=0;entryY=1;entryDx=0;entryDy=0;curved=1;" edge="1" parent="1" source="jaVfIYYKMAJsXnhKlcQG-20" target="jaVfIYYKMAJsXnhKlcQG-26">
          <mxGeometry relative="1" as="geometry" />
        </mxCell>
        <mxCell id="jaVfIYYKMAJsXnhKlcQG-18" style="edgeStyle=orthogonalEdgeStyle;rounded=0;orthogonalLoop=1;jettySize=auto;html=1;entryX=0;entryY=0.5;entryDx=0;entryDy=0;curved=1;" edge="1" parent="1" source="jaVfIYYKMAJsXnhKlcQG-20" target="jaVfIYYKMAJsXnhKlcQG-40">
          <mxGeometry relative="1" as="geometry" />
        </mxCell>
        <mxCell id="jaVfIYYKMAJsXnhKlcQG-19" style="edgeStyle=orthogonalEdgeStyle;rounded=0;orthogonalLoop=1;jettySize=auto;html=1;curved=1;" edge="1" parent="1" source="jaVfIYYKMAJsXnhKlcQG-20" target="jaVfIYYKMAJsXnhKlcQG-36">
          <mxGeometry relative="1" as="geometry" />
        </mxCell>
        <mxCell id="jaVfIYYKMAJsXnhKlcQG-20" value="Employee" style="shape=umlActor;verticalLabelPosition=bottom;verticalAlign=top;html=1;fillColor=#e1d5e7;strokeColor=#9673a6;" vertex="1" parent="1">
          <mxGeometry x="177.5" y="1530" width="70" height="130" as="geometry" />
        </mxCell>
        <mxCell id="jaVfIYYKMAJsXnhKlcQG-21" style="edgeStyle=orthogonalEdgeStyle;rounded=0;orthogonalLoop=1;jettySize=auto;html=1;exitX=1;exitY=0;exitDx=0;exitDy=0;curved=1;" edge="1" parent="1" source="jaVfIYYKMAJsXnhKlcQG-26" target="jaVfIYYKMAJsXnhKlcQG-30">
          <mxGeometry relative="1" as="geometry" />
        </mxCell>
        <mxCell id="jaVfIYYKMAJsXnhKlcQG-22" style="edgeStyle=orthogonalEdgeStyle;rounded=0;orthogonalLoop=1;jettySize=auto;html=1;exitX=1;exitY=0.5;exitDx=0;exitDy=0;entryX=0;entryY=0.5;entryDx=0;entryDy=0;curved=1;" edge="1" parent="1" source="jaVfIYYKMAJsXnhKlcQG-26" target="jaVfIYYKMAJsXnhKlcQG-27">
          <mxGeometry relative="1" as="geometry" />
        </mxCell>
        <mxCell id="jaVfIYYKMAJsXnhKlcQG-23" style="edgeStyle=orthogonalEdgeStyle;rounded=0;orthogonalLoop=1;jettySize=auto;html=1;exitX=1;exitY=1;exitDx=0;exitDy=0;curved=1;" edge="1" parent="1" source="jaVfIYYKMAJsXnhKlcQG-26" target="jaVfIYYKMAJsXnhKlcQG-29">
          <mxGeometry relative="1" as="geometry" />
        </mxCell>
        <mxCell id="jaVfIYYKMAJsXnhKlcQG-24" style="edgeStyle=orthogonalEdgeStyle;rounded=0;orthogonalLoop=1;jettySize=auto;html=1;exitX=0.5;exitY=1;exitDx=0;exitDy=0;curved=1;" edge="1" parent="1" source="jaVfIYYKMAJsXnhKlcQG-26" target="jaVfIYYKMAJsXnhKlcQG-49">
          <mxGeometry relative="1" as="geometry" />
        </mxCell>
        <mxCell id="jaVfIYYKMAJsXnhKlcQG-25" style="edgeStyle=orthogonalEdgeStyle;rounded=0;orthogonalLoop=1;jettySize=auto;html=1;curved=1;" edge="1" parent="1" source="jaVfIYYKMAJsXnhKlcQG-26" target="jaVfIYYKMAJsXnhKlcQG-50">
          <mxGeometry relative="1" as="geometry" />
        </mxCell>
        <mxCell id="jaVfIYYKMAJsXnhKlcQG-26" value="Request leave" style="ellipse;whiteSpace=wrap;html=1;fillColor=#d5e8d4;strokeColor=#82b366;" vertex="1" parent="1">
          <mxGeometry x="452.5" y="985" width="120" height="80" as="geometry" />
        </mxCell>
        <mxCell id="jaVfIYYKMAJsXnhKlcQG-27" value="Approve or deny leave" style="ellipse;whiteSpace=wrap;html=1;fillColor=#fff2cc;strokeColor=#d6b656;" vertex="1" parent="1">
          <mxGeometry x="682.5" y="1070" width="120" height="80" as="geometry" />
        </mxCell>
        <mxCell id="jaVfIYYKMAJsXnhKlcQG-28" value="Approve request" style="ellipse;whiteSpace=wrap;html=1;fillColor=#fff2cc;strokeColor=#d6b656;" vertex="1" parent="1">
          <mxGeometry x="737.5" y="1200" width="120" height="80" as="geometry" />
        </mxCell>
        <mxCell id="jaVfIYYKMAJsXnhKlcQG-29" value="Notify employee" style="ellipse;whiteSpace=wrap;html=1;fillColor=#fff2cc;strokeColor=#d6b656;" vertex="1" parent="1">
          <mxGeometry x="882.5" y="1120" width="120" height="80" as="geometry" />
        </mxCell>
        <mxCell id="jaVfIYYKMAJsXnhKlcQG-30" value="Review leave request" style="ellipse;whiteSpace=wrap;html=1;fillColor=#fff2cc;strokeColor=#d6b656;" vertex="1" parent="1">
          <mxGeometry x="842.5" y="945" width="120" height="80" as="geometry" />
        </mxCell>
        <mxCell id="jaVfIYYKMAJsXnhKlcQG-31" style="edgeStyle=orthogonalEdgeStyle;rounded=0;orthogonalLoop=1;jettySize=auto;html=1;exitX=0.5;exitY=1;exitDx=0;exitDy=0;entryX=0.008;entryY=0.604;entryDx=0;entryDy=0;entryPerimeter=0;curved=1;" edge="1" parent="1" source="jaVfIYYKMAJsXnhKlcQG-26" target="jaVfIYYKMAJsXnhKlcQG-28">
          <mxGeometry relative="1" as="geometry" />
        </mxCell>
        <mxCell id="jaVfIYYKMAJsXnhKlcQG-32" style="edgeStyle=orthogonalEdgeStyle;rounded=0;orthogonalLoop=1;jettySize=auto;html=1;exitX=1;exitY=1;exitDx=0;exitDy=0;curved=1;" edge="1" parent="1" source="jaVfIYYKMAJsXnhKlcQG-36" target="jaVfIYYKMAJsXnhKlcQG-43">
          <mxGeometry relative="1" as="geometry" />
        </mxCell>
        <mxCell id="jaVfIYYKMAJsXnhKlcQG-33" style="edgeStyle=orthogonalEdgeStyle;rounded=0;orthogonalLoop=1;jettySize=auto;html=1;exitX=0;exitY=1;exitDx=0;exitDy=0;entryX=0;entryY=0.5;entryDx=0;entryDy=0;curved=1;" edge="1" parent="1" source="jaVfIYYKMAJsXnhKlcQG-36" target="jaVfIYYKMAJsXnhKlcQG-42">
          <mxGeometry relative="1" as="geometry" />
        </mxCell>
        <mxCell id="jaVfIYYKMAJsXnhKlcQG-34" style="edgeStyle=orthogonalEdgeStyle;rounded=0;orthogonalLoop=1;jettySize=auto;html=1;exitX=0.5;exitY=0;exitDx=0;exitDy=0;curved=1;" edge="1" parent="1" source="jaVfIYYKMAJsXnhKlcQG-36" target="jaVfIYYKMAJsXnhKlcQG-41">
          <mxGeometry relative="1" as="geometry" />
        </mxCell>
        <mxCell id="jaVfIYYKMAJsXnhKlcQG-35" style="edgeStyle=orthogonalEdgeStyle;rounded=0;orthogonalLoop=1;jettySize=auto;html=1;exitX=1;exitY=0;exitDx=0;exitDy=0;curved=1;" edge="1" parent="1" source="jaVfIYYKMAJsXnhKlcQG-36" target="jaVfIYYKMAJsXnhKlcQG-44">
          <mxGeometry relative="1" as="geometry" />
        </mxCell>
        <mxCell id="jaVfIYYKMAJsXnhKlcQG-36" value="Request time off" style="ellipse;whiteSpace=wrap;html=1;fillColor=#d5e8d4;strokeColor=#82b366;" vertex="1" parent="1">
          <mxGeometry x="417.5" y="1600" width="120" height="80" as="geometry" />
        </mxCell>
        <mxCell id="jaVfIYYKMAJsXnhKlcQG-37" style="edgeStyle=orthogonalEdgeStyle;rounded=0;orthogonalLoop=1;jettySize=auto;html=1;exitX=0.5;exitY=0;exitDx=0;exitDy=0;entryX=0;entryY=0;entryDx=0;entryDy=0;curved=1;" edge="1" parent="1" source="jaVfIYYKMAJsXnhKlcQG-40" target="jaVfIYYKMAJsXnhKlcQG-45">
          <mxGeometry relative="1" as="geometry" />
        </mxCell>
        <mxCell id="jaVfIYYKMAJsXnhKlcQG-38" style="edgeStyle=orthogonalEdgeStyle;rounded=0;orthogonalLoop=1;jettySize=auto;html=1;exitX=1;exitY=0.5;exitDx=0;exitDy=0;entryX=0;entryY=0.5;entryDx=0;entryDy=0;curved=1;" edge="1" parent="1" source="jaVfIYYKMAJsXnhKlcQG-40" target="jaVfIYYKMAJsXnhKlcQG-46">
          <mxGeometry relative="1" as="geometry" />
        </mxCell>
        <mxCell id="jaVfIYYKMAJsXnhKlcQG-39" style="edgeStyle=orthogonalEdgeStyle;rounded=0;orthogonalLoop=1;jettySize=auto;html=1;exitX=0;exitY=1;exitDx=0;exitDy=0;entryX=0;entryY=0.5;entryDx=0;entryDy=0;curved=1;" edge="1" parent="1" source="jaVfIYYKMAJsXnhKlcQG-40" target="jaVfIYYKMAJsXnhKlcQG-47">
          <mxGeometry relative="1" as="geometry" />
        </mxCell>
        <mxCell id="jaVfIYYKMAJsXnhKlcQG-40" value="View payment details" style="ellipse;whiteSpace=wrap;html=1;fillColor=#d5e8d4;strokeColor=#82b366;" vertex="1" parent="1">
          <mxGeometry x="427.5" y="1880" width="120" height="80" as="geometry" />
        </mxCell>
        <mxCell id="jaVfIYYKMAJsXnhKlcQG-41" value="Approve request" style="ellipse;whiteSpace=wrap;html=1;fillColor=#fff2cc;strokeColor=#d6b656;" vertex="1" parent="1">
          <mxGeometry x="707.5" y="1540" width="120" height="80" as="geometry" />
        </mxCell>
        <mxCell id="jaVfIYYKMAJsXnhKlcQG-42" value="Enter request details" style="ellipse;whiteSpace=wrap;html=1;fillColor=#f8cecc;strokeColor=#b85450;" vertex="1" parent="1">
          <mxGeometry x="707.5" y="1670" width="120" height="80" as="geometry" />
        </mxCell>
        <mxCell id="jaVfIYYKMAJsXnhKlcQG-43" value="Submit request" style="ellipse;whiteSpace=wrap;html=1;fillColor=#f8cecc;strokeColor=#b85450;" vertex="1" parent="1">
          <mxGeometry x="857.5" y="1620" width="120" height="80" as="geometry" />
        </mxCell>
        <mxCell id="jaVfIYYKMAJsXnhKlcQG-44" value="Notify employee" style="ellipse;whiteSpace=wrap;html=1;fillColor=#fff2cc;strokeColor=#d6b656;" vertex="1" parent="1">
          <mxGeometry x="872.5" y="1450" width="120" height="80" as="geometry" />
        </mxCell>
        <mxCell id="jaVfIYYKMAJsXnhKlcQG-45" value="View payslip" style="ellipse;whiteSpace=wrap;html=1;fillColor=#f8cecc;strokeColor=#b85450;" vertex="1" parent="1">
          <mxGeometry x="857.5" y="1780" width="120" height="80" as="geometry" />
        </mxCell>
        <mxCell id="jaVfIYYKMAJsXnhKlcQG-46" value="Download payslip" style="ellipse;whiteSpace=wrap;html=1;fillColor=#f8cecc;strokeColor=#b85450;" vertex="1" parent="1">
          <mxGeometry x="722.5" y="1840" width="120" height="80" as="geometry" />
        </mxCell>
        <mxCell id="jaVfIYYKMAJsXnhKlcQG-47" value="View payment history" style="ellipse;whiteSpace=wrap;html=1;fillColor=#f8cecc;strokeColor=#b85450;" vertex="1" parent="1">
          <mxGeometry x="872.5" y="1890" width="120" height="80" as="geometry" />
        </mxCell>
        <mxCell id="jaVfIYYKMAJsXnhKlcQG-48" value="&lt;font style=&quot;font-size: 41px;&quot;&gt;HRMS&lt;/font&gt;" style="text;strokeColor=none;fillColor=none;html=1;fontSize=24;fontStyle=1;verticalAlign=middle;align=center;" vertex="1" parent="1">
          <mxGeometry x="582.5" y="510" width="100" height="40" as="geometry" />
        </mxCell>
        <mxCell id="jaVfIYYKMAJsXnhKlcQG-49" value="Enter leave request" style="ellipse;whiteSpace=wrap;html=1;fillColor=#f8cecc;strokeColor=#b85450;" vertex="1" parent="1">
          <mxGeometry x="697.5" y="1310" width="120" height="80" as="geometry" />
        </mxCell>
        <mxCell id="jaVfIYYKMAJsXnhKlcQG-50" value="Submit leave request" style="ellipse;whiteSpace=wrap;html=1;fillColor=#f8cecc;strokeColor=#b85450;" vertex="1" parent="1">
          <mxGeometry x="857.5" y="1300" width="120" height="80" as="geometry" />
        </mxCell>
      </root>
    </mxGraphModel>
  </diagram>
  <diagram id="BXzdEjRsGXOlebDIule0" name="Page-2">
    <mxGraphModel dx="2074" dy="1098" grid="1" gridSize="10" guides="1" tooltips="1" connect="1" arrows="1" fold="1" page="1" pageScale="1" pageWidth="850" pageHeight="1100" math="0" shadow="0">
      <root>
        <mxCell id="0" />
        <mxCell id="1" parent="0" />
        <UserObject label="" plantUmlData="{&#xa;  &quot;data&quot;: &quot;@startuml\nleft to right direction\n\nactor Employee as employee\nactor \&quot;HR Manager\&quot; as hr_manager\nactor \&quot;HR Administrator\&quot; as hr_administrator\nactor \&quot;HR Professional\&quot; as hr_professional\nactor \&quot;Compliance Officer\&quot; as compliance_officer\nactor \&quot;Payroll Admin\&quot; as payroll_admin\n\nusecase UC_HR_01 as \&quot;Request Time Off\&quot;\nusecase UC_HR_02 as \&quot;Update Employee Information\&quot;\nusecase UC_HR_03 as \&quot;Conduct Performance Evaluation\&quot;\nusecase UC_HR_04 as \&quot;Manage Training Programs\&quot;\nusecase UC_HR_05 as \&quot;Request Leave\&quot;\nusecase UC_HR_06 as \&quot;Payroll Processing\&quot;\nusecase UC_HR_07 as \&quot;Compliance Monitoring and Reporting\&quot;\nusecase UC_HR_08 as \&quot;View Payment Details\&quot;\n\nemployee --&gt; UC_HR_01 : Enter Request Details\nemployee --&gt; UC_HR_01 : Submit Request\nhr_manager --&gt; UC_HR_01 : Approve Request\nhr_manager --&gt; UC_HR_01 : Notify Employee\n\nhr_manager --&gt; UC_HR_02 : Access Employee Records\nhr_manager --&gt; UC_HR_02 : Edit Employee Information\nhr_manager --&gt; UC_HR_02 : Save Changes\nhr_manager --&gt; UC_HR_02 : Notify Employee\n\nhr_professional --&gt; UC_HR_03 : Set Goals\nhr_professional --&gt; UC_HR_03 : Conduct Evaluation\nhr_professional --&gt; UC_HR_03 : Provide Feedback\nhr_professional --&gt; UC_HR_03 : Generate Performance Report\n\nhr_administrator --&gt; UC_HR_04 : Access Training Resources\nhr_administrator --&gt; UC_HR_04 : Schedule Training Sessions\nhr_administrator --&gt; UC_HR_04 : Track Participation\nhr_administrator --&gt; UC_HR_04 : Monitor Progress\n\nemployee --&gt; UC_HR_05 : Enter Leave Request\nemployee --&gt; UC_HR_05 : Submit Leave Request\nhr_manager --&gt; UC_HR_05 : Review Leave Request\nhr_manager --&gt; UC_HR_05 : Approve or Deny Leave\nhr_manager --&gt; UC_HR_05 : Notify Employee\n\npayroll_admin --&gt; UC_HR_06 : Calculate Salaries\npayroll_admin --&gt; UC_HR_06 : Process Deductions and Taxes\npayroll_admin --&gt; UC_HR_06 : Generate Payslips\npayroll_admin --&gt; UC_HR_06 : Facilitate Direct Deposit\n\ncompliance_officer --&gt; UC_HR_07 : Monitor Compliance\ncompliance_officer --&gt; UC_HR_07 : Generate Compliance Reports\ncompliance_officer --&gt; UC_HR_07 : Ensure Policy Adherence\ncompliance_officer --&gt; UC_HR_07 : Update Compliance Status\n\nemployee --&gt; UC_HR_08 : View Payslip\nemployee --&gt; UC_HR_08 : View Payment History\nemployee --&gt; UC_HR_08 : Download Payslip\n\n@enduml\n&quot;,&#xa;  &quot;format&quot;: &quot;svg&quot;&#xa;}" id="Mf6BpslDDyaBF_KpfXTd-1">
          <mxCell style="shape=image;noLabel=1;verticalAlign=top;aspect=fixed;imageAspect=0;image=data:image/svg+xml,PD94bWwgdmVyc2lvbj0iMS4wIiBlbmNvZGluZz0idXMtYXNjaWkiIHN0YW5kYWxvbmU9Im5vIj8+PHN2ZyB4bWxucz0iaHR0cDovL3d3dy53My5vcmcvMjAwMC9zdmciIHhtbG5zOnhsaW5rPSJodHRwOi8vd3d3LnczLm9yZy8xOTk5L3hsaW5rIiBjb250ZW50U3R5bGVUeXBlPSJ0ZXh0L2NzcyIgaGVpZ2h0PSIxNzY3cHgiIHByZXNlcnZlQXNwZWN0UmF0aW89Im5vbmUiIHN0eWxlPSJ3aWR0aDo2NjhweDtoZWlnaHQ6MTc2N3B4O2JhY2tncm91bmQ6I0ZGRkZGRjsiIHZlcnNpb249IjEuMSIgdmlld0JveD0iMCAwIDY2OCAxNzY3IiB3aWR0aD0iNjY4cHgiIHpvb21BbmRQYW49Im1hZ25pZnkiPjxkZWZzLz48Zz48IS0tZW50aXR5IGVtcGxveWVlLS0+PGcgaWQ9ImVsZW1fZW1wbG95ZWUiPjxlbGxpcHNlIGN4PSI2OS41IiBjeT0iMTUwNCIgZmlsbD0iI0YxRjFGMSIgcng9IjgiIHJ5PSI4IiBzdHlsZT0ic3Ryb2tlOiMxODE4MTg7c3Ryb2tlLXdpZHRoOjAuNTsiLz48cGF0aCBkPSJNNjkuNSwxNTEyIEw2OS41LDE1MzkgTTU2LjUsMTUyMCBMODIuNSwxNTIwIE02OS41LDE1MzkgTDU2LjUsMTU1NCBNNjkuNSwxNTM5IEw4Mi41LDE1NTQgIiBmaWxsPSJub25lIiBzdHlsZT0ic3Ryb2tlOiMxODE4MTg7c3Ryb2tlLXdpZHRoOjAuNTsiLz48dGV4dCBmaWxsPSIjMDAwMDAwIiBmb250LWZhbWlseT0ic2Fucy1zZXJpZiIgZm9udC1zaXplPSIxNCIgbGVuZ3RoQWRqdXN0PSJzcGFjaW5nIiB0ZXh0TGVuZ3RoPSI1NyIgeD0iNDEiIHk9IjE1NjguNzM0NCI+RW1wbG95ZWU8L3RleHQ+PC9nPjwhLS1lbnRpdHkgaHJfbWFuYWdlci0tPjxnIGlkPSJlbGVtX2hyX21hbmFnZXIiPjxlbGxpcHNlIGN4PSI2OS41IiBjeT0iMTA2NCIgZmlsbD0iI0YxRjFGMSIgcng9IjgiIHJ5PSI4IiBzdHlsZT0ic3Ryb2tlOiMxODE4MTg7c3Ryb2tlLXdpZHRoOjAuNTsiLz48cGF0aCBkPSJNNjkuNSwxMDcyIEw2OS41LDEwOTkgTTU2LjUsMTA4MCBMODIuNSwxMDgwIE02OS41LDEwOTkgTDU2LjUsMTExNCBNNjkuNSwxMDk5IEw4Mi41LDExMTQgIiBmaWxsPSJub25lIiBzdHlsZT0ic3Ryb2tlOiMxODE4MTg7c3Ryb2tlLXdpZHRoOjAuNTsiLz48dGV4dCBmaWxsPSIjMDAwMDAwIiBmb250LWZhbWlseT0ic2Fucy1zZXJpZiIgZm9udC1zaXplPSIxNCIgbGVuZ3RoQWRqdXN0PSJzcGFjaW5nIiB0ZXh0TGVuZ3RoPSI3MCIgeD0iMzQuNSIgeT0iMTEyOC43MzQ0Ij5IUiBNYW5hZ2VyPC90ZXh0PjwvZz48IS0tZW50aXR5IGhyX2FkbWluaXN0cmF0b3ItLT48ZyBpZD0iZWxlbV9ocl9hZG1pbmlzdHJhdG9yIj48ZWxsaXBzZSBjeD0iNjkuNSIgY3k9IjcwNyIgZmlsbD0iI0YxRjFGMSIgcng9IjgiIHJ5PSI4IiBzdHlsZT0ic3Ryb2tlOiMxODE4MTg7c3Ryb2tlLXdpZHRoOjAuNTsiLz48cGF0aCBkPSJNNjkuNSw3MTUgTDY5LjUsNzQyIE01Ni41LDcyMyBMODIuNSw3MjMgTTY5LjUsNzQyIEw1Ni41LDc1NyBNNjkuNSw3NDIgTDgyLjUsNzU3ICIgZmlsbD0ibm9uZSIgc3R5bGU9InN0cm9rZTojMTgxODE4O3N0cm9rZS13aWR0aDowLjU7Ii8+PHRleHQgZmlsbD0iIzAwMDAwMCIgZm9udC1mYW1pbHk9InNhbnMtc2VyaWYiIGZvbnQtc2l6ZT0iMTQiIGxlbmd0aEFkanVzdD0ic3BhY2luZyIgdGV4dExlbmd0aD0iMTEzIiB4PSIxMyIgeT0iNzcxLjczNDQiPkhSIEFkbWluaXN0cmF0b3I8L3RleHQ+PC9nPjwhLS1lbnRpdHkgaHJfcHJvZmVzc2lvbmFsLS0+PGcgaWQ9ImVsZW1faHJfcHJvZmVzc2lvbmFsIj48ZWxsaXBzZSBjeD0iNjkuNSIgY3k9IjQ4NyIgZmlsbD0iI0YxRjFGMSIgcng9IjgiIHJ5PSI4IiBzdHlsZT0ic3Ryb2tlOiMxODE4MTg7c3Ryb2tlLXdpZHRoOjAuNTsiLz48cGF0aCBkPSJNNjkuNSw0OTUgTDY5LjUsNTIyIE01Ni41LDUwMyBMODIuNSw1MDMgTTY5LjUsNTIyIEw1Ni41LDUzNyBNNjkuNSw1MjIgTDgyLjUsNTM3ICIgZmlsbD0ibm9uZSIgc3R5bGU9InN0cm9rZTojMTgxODE4O3N0cm9rZS13aWR0aDowLjU7Ii8+PHRleHQgZmlsbD0iIzAwMDAwMCIgZm9udC1mYW1pbHk9InNhbnMtc2VyaWYiIGZvbnQtc2l6ZT0iMTQiIGxlbmd0aEFkanVzdD0ic3BhY2luZyIgdGV4dExlbmd0aD0iMTA1IiB4PSIxNyIgeT0iNTUxLjczNDQiPkhSIFByb2Zlc3Npb25hbDwvdGV4dD48L2c+PCEtLWVudGl0eSBjb21wbGlhbmNlX29mZmljZXItLT48ZyBpZD0iZWxlbV9jb21wbGlhbmNlX29mZmljZXIiPjxlbGxpcHNlIGN4PSI2OS41IiBjeT0iMjY3IiBmaWxsPSIjRjFGMUYxIiByeD0iOCIgcnk9IjgiIHN0eWxlPSJzdHJva2U6IzE4MTgxODtzdHJva2Utd2lkdGg6MC41OyIvPjxwYXRoIGQ9Ik02OS41LDI3NSBMNjkuNSwzMDIgTTU2LjUsMjgzIEw4Mi41LDI4MyBNNjkuNSwzMDIgTDU2LjUsMzE3IE02OS41LDMwMiBMODIuNSwzMTcgIiBmaWxsPSJub25lIiBzdHlsZT0ic3Ryb2tlOiMxODE4MTg7c3Ryb2tlLXdpZHRoOjAuNTsiLz48dGV4dCBmaWxsPSIjMDAwMDAwIiBmb250LWZhbWlseT0ic2Fucy1zZXJpZiIgZm9udC1zaXplPSIxNCIgbGVuZ3RoQWRqdXN0PSJzcGFjaW5nIiB0ZXh0TGVuZ3RoPSIxMjciIHg9IjYiIHk9IjMzMS43MzQ0Ij5Db21wbGlhbmNlIE9mZmljZXI8L3RleHQ+PC9nPjwhLS1lbnRpdHkgcGF5cm9sbF9hZG1pbi0tPjxnIGlkPSJlbGVtX3BheXJvbGxfYWRtaW4iPjxlbGxpcHNlIGN4PSI2OS41IiBjeT0iNDciIGZpbGw9IiNGMUYxRjEiIHJ4PSI4IiByeT0iOCIgc3R5bGU9InN0cm9rZTojMTgxODE4O3N0cm9rZS13aWR0aDowLjU7Ii8+PHBhdGggZD0iTTY5LjUsNTUgTDY5LjUsODIgTTU2LjUsNjMgTDgyLjUsNjMgTTY5LjUsODIgTDU2LjUsOTcgTTY5LjUsODIgTDgyLjUsOTcgIiBmaWxsPSJub25lIiBzdHlsZT0ic3Ryb2tlOiMxODE4MTg7c3Ryb2tlLXdpZHRoOjAuNTsiLz48dGV4dCBmaWxsPSIjMDAwMDAwIiBmb250LWZhbWlseT0ic2Fucy1zZXJpZiIgZm9udC1zaXplPSIxNCIgbGVuZ3RoQWRqdXN0PSJzcGFjaW5nIiB0ZXh0TGVuZ3RoPSI5MiIgeD0iMjMuNSIgeT0iMTExLjczNDQiPlBheXJvbGwgQWRtaW48L3RleHQ+PC9nPjxnIGlkPSJlbGVtX1VDX0hSXzAxIj48ZWxsaXBzZSBjeD0iNTI1LjM2NjgiIGN5PSIxNDUxLjA3MzQiIGZpbGw9IiNGMUYxRjEiIHJ4PSI3NS44NjY4IiByeT0iMTcuNTczNCIgc3R5bGU9InN0cm9rZTojMTgxODE4O3N0cm9rZS13aWR0aDowLjU7Ii8+PHRleHQgZmlsbD0iIzAwMDAwMCIgZm9udC1mYW1pbHk9InNhbnMtc2VyaWYiIGZvbnQtc2l6ZT0iMTQiIGxlbmd0aEFkanVzdD0ic3BhY2luZyIgdGV4dExlbmd0aD0iMTEzIiB4PSI0NjguODY2OCIgeT0iMTQ1NC44MTU1Ij5SZXF1ZXN0IFRpbWUgT2ZmPC90ZXh0PjwvZz48ZyBpZD0iZWxlbV9VQ19IUl8wMiI+PGVsbGlwc2UgY3g9IjUyNS42OTIzIiBjeT0iOTU2LjEzODUiIGZpbGw9IiNGMUYxRjEiIHJ4PSIxMTEuMTkyMyIgcnk9IjI0LjYzODUiIHN0eWxlPSJzdHJva2U6IzE4MTgxODtzdHJva2Utd2lkdGg6MC41OyIvPjx0ZXh0IGZpbGw9IiMwMDAwMDAiIGZvbnQtZmFtaWx5PSJzYW5zLXNlcmlmIiBmb250LXNpemU9IjE0IiBsZW5ndGhBZGp1c3Q9InNwYWNpbmciIHRleHRMZW5ndGg9IjE5MSIgeD0iNDMwLjE5MjMiIHk9Ijk1OS44ODA2Ij5VcGRhdGUgRW1wbG95ZWUgSW5mb3JtYXRpb248L3RleHQ+PC9nPjxnIGlkPSJlbGVtX1VDX0hSXzAzIj48ZWxsaXBzZSBjeD0iNTI1LjYyNDciIGN5PSI1MTYuMDI0OSIgZmlsbD0iI0YxRjFGMSIgcng9IjEyMC42MjQ3IiByeT0iMjYuNTI0OSIgc3R5bGU9InN0cm9rZTojMTgxODE4O3N0cm9rZS13aWR0aDowLjU7Ii8+PHRleHQgZmlsbD0iIzAwMDAwMCIgZm9udC1mYW1pbHk9InNhbnMtc2VyaWYiIGZvbnQtc2l6ZT0iMTQiIGxlbmd0aEFkanVzdD0ic3BhY2luZyIgdGV4dExlbmd0aD0iMjExIiB4PSI0MjAuMTI0NyIgeT0iNTE5Ljc2NzEiPkNvbmR1Y3QgUGVyZm9ybWFuY2UgRXZhbHVhdGlvbjwvdGV4dD48L2c+PGcgaWQ9ImVsZW1fVUNfSFJfMDQiPjxlbGxpcHNlIGN4PSI1MjUuNDQ2OCIgY3k9IjczNi4wODk0IiBmaWxsPSIjRjFGMUYxIiByeD0iMTAwLjk0NjgiIHJ5PSIyMi41ODk0IiBzdHlsZT0ic3Ryb2tlOiMxODE4MTg7c3Ryb2tlLXdpZHRoOjAuNTsiLz48dGV4dCBmaWxsPSIjMDAwMDAwIiBmb250LWZhbWlseT0ic2Fucy1zZXJpZiIgZm9udC1zaXplPSIxNCIgbGVuZ3RoQWRqdXN0PSJzcGFjaW5nIiB0ZXh0TGVuZ3RoPSIxNjkiIHg9IjQ0MC45NDY4IiB5PSI3MzkuODMxNSI+TWFuYWdlIFRyYWluaW5nIFByb2dyYW1zPC90ZXh0PjwvZz48ZyBpZD0iZWxlbV9VQ19IUl8wNSI+PGVsbGlwc2UgY3g9IjUyNS42ODM0IiBjeT0iMTIwMy4yMzY3IiBmaWxsPSIjRjFGMUYxIiByeD0iNjYuNjgzNCIgcnk9IjE1LjczNjciIHN0eWxlPSJzdHJva2U6IzE4MTgxODtzdHJva2Utd2lkdGg6MC41OyIvPjx0ZXh0IGZpbGw9IiMwMDAwMDAiIGZvbnQtZmFtaWx5PSJzYW5zLXNlcmlmIiBmb250LXNpemU9IjE0IiBsZW5ndGhBZGp1c3Q9InNwYWNpbmciIHRleHRMZW5ndGg9IjkxIiB4PSI0ODAuMTgzNCIgeT0iMTIwNi45Nzg5Ij5SZXF1ZXN0IExlYXZlPC90ZXh0PjwvZz48ZyBpZD0iZWxlbV9VQ19IUl8wNiI+PGVsbGlwc2UgY3g9IjUyNS41MTMyIiBjeT0iNzYuMjAyNiIgZmlsbD0iI0YxRjFGMSIgcng9IjgxLjUxMzIiIHJ5PSIxOC43MDI2IiBzdHlsZT0ic3Ryb2tlOiMxODE4MTg7c3Ryb2tlLXdpZHRoOjAuNTsiLz48dGV4dCBmaWxsPSIjMDAwMDAwIiBmb250LWZhbWlseT0ic2Fucy1zZXJpZiIgZm9udC1zaXplPSIxNCIgbGVuZ3RoQWRqdXN0PSJzcGFjaW5nIiB0ZXh0TGVuZ3RoPSIxMjYiIHg9IjQ2Mi41MTMyIiB5PSI3OS45NDQ4Ij5QYXlyb2xsIFByb2Nlc3Npbmc8L3RleHQ+PC9nPjxnIGlkPSJlbGVtX1VDX0hSXzA3Ij48ZWxsaXBzZSBjeD0iNTI1LjMyOTIiIGN5PSIyOTUuODY1OCIgZmlsbD0iI0YxRjFGMSIgcng9IjEzNy4zMjkyIiByeT0iMjkuODY1OCIgc3R5bGU9InN0cm9rZTojMTgxODE4O3N0cm9rZS13aWR0aDowLjU7Ii8+PHRleHQgZmlsbD0iIzAwMDAwMCIgZm9udC1mYW1pbHk9InNhbnMtc2VyaWYiIGZvbnQtc2l6ZT0iMTQiIGxlbmd0aEFkanVzdD0ic3BhY2luZyIgdGV4dExlbmd0aD0iMjQ2IiB4PSI0MDIuMzI5MiIgeT0iMjk5LjYwOCI+Q29tcGxpYW5jZSBNb25pdG9yaW5nIGFuZCBSZXBvcnRpbmc8L3RleHQ+PC9nPjxnIGlkPSJlbGVtX1VDX0hSXzA4Ij48ZWxsaXBzZSBjeD0iNTI1LjYyOSIgY3k9IjE2NDMuMTI1OCIgZmlsbD0iI0YxRjFGMSIgcng9Ijg4LjYyOSIgcnk9IjIwLjEyNTgiIHN0eWxlPSJzdHJva2U6IzE4MTgxODtzdHJva2Utd2lkdGg6MC41OyIvPjx0ZXh0IGZpbGw9IiMwMDAwMDAiIGZvbnQtZmFtaWx5PSJzYW5zLXNlcmlmIiBmb250LXNpemU9IjE0IiBsZW5ndGhBZGp1c3Q9InNwYWNpbmciIHRleHRMZW5ndGg9IjE0MiIgeD0iNDU0LjYyOSIgeT0iMTY0Ni44NjgiPlZpZXcgUGF5bWVudCBEZXRhaWxzPC90ZXh0PjwvZz48IS0tbGluayBlbXBsb3llZSB0byBVQ19IUl8wMS0tPjxnIGlkPSJsaW5rX2VtcGxveWVlX1VDX0hSXzAxIj48cGF0aCBkPSJNOTguMjIsMTUyNy45OSBDMTcwLjUxLDE1MTQuOTMgMzYwLjE0NTYsMTQ4MC42ODY5IDQ1OS4yNjU2LDE0NjIuNzc2OSAiIGZpbGw9Im5vbmUiIGlkPSJlbXBsb3llZS10by1VQ19IUl8wMSIgc3R5bGU9InN0cm9rZTojMTgxODE4O3N0cm9rZS13aWR0aDoxLjA7Ii8+PHBvbHlnb24gZmlsbD0iIzE4MTgxOCIgcG9pbnRzPSI0NjUuMTcsMTQ2MS43MSw0NTUuNjAyMiwxNDU5LjM3NCw0NjAuMjQ5NywxNDYyLjU5OTEsNDU3LjAyNDcsMTQ2Ny4yNDY2LDQ2NS4xNywxNDYxLjcxIiBzdHlsZT0ic3Ryb2tlOiMxODE4MTg7c3Ryb2tlLXdpZHRoOjEuMDsiLz48dGV4dCBmaWxsPSIjMDAwMDAwIiBmb250LWZhbWlseT0ic2Fucy1zZXJpZiIgZm9udC1zaXplPSIxMyIgbGVuZ3RoQWRqdXN0PSJzcGFjaW5nIiB0ZXh0TGVuZ3RoPSIxNDIiIHg9IjE4OS41IiB5PSIxNDgwLjI4OTEiPkVudGVyIFJlcXVlc3QgRGV0YWlsczwvdGV4dD48L2c+PCEtLWxpbmsgZW1wbG95ZWUgdG8gVUNfSFJfMDEtLT48ZyBpZD0ibGlua19lbXBsb3llZV9VQ19IUl8wMSI+PHBhdGggZD0iTTk4LjM3LDE1MzguMTMgQzE1MC4zNCwxNTQ2LjY4IDI2NS4xNiwxNTYwLjc5IDM1OCwxNTM4IEM0MTMuMjcsMTUyNC40MyA0NjUuNjA1NSwxNDkyLjMyODggNDk2LjQ3NTUsMTQ3MS4xMDg4ICIgZmlsbD0ibm9uZSIgaWQ9ImVtcGxveWVlLXRvLVVDX0hSXzAxLTEiIHN0eWxlPSJzdHJva2U6IzE4MTgxODtzdHJva2Utd2lkdGg6MS4wOyIvPjxwb2x5Z29uIGZpbGw9IiMxODE4MTgiIHBvaW50cz0iNTAxLjQyLDE0NjcuNzEsNDkxLjczNzQsMTQ2OS41MTE5LDQ5Ny4yOTk2LDE0NzAuNTQyNCw0OTYuMjY5MiwxNDc2LjEwNDYsNTAxLjQyLDE0NjcuNzEiIHN0eWxlPSJzdHJva2U6IzE4MTgxODtzdHJva2Utd2lkdGg6MS4wOyIvPjx0ZXh0IGZpbGw9IiMwMDAwMDAiIGZvbnQtZmFtaWx5PSJzYW5zLXNlcmlmIiBmb250LXNpemU9IjEzIiBsZW5ndGhBZGp1c3Q9InNwYWNpbmciIHRleHRMZW5ndGg9Ijk0IiB4PSIyMTMuNSIgeT0iMTUzNi4yODkxIj5TdWJtaXQgUmVxdWVzdDwvdGV4dD48L2c+PCEtLWxpbmsgaHJfbWFuYWdlciB0byBVQ19IUl8wMS0tPjxnIGlkPSJsaW5rX2hyX21hbmFnZXJfVUNfSFJfMDEiPjxwYXRoIGQ9Ik04MS41NywxMTMwLjgzIEM5NC42OSwxMTY4Ljc3IDEyMC4zNCwxMjI1LjkgMTYzLDEyNTcgQzIzNC41LDEzMDkuMSAyNzkuMywxMjU2LjU4IDM1OCwxMjk3IEM0MjUuMjUsMTMzMS41MyA0ODEuNTUsMTM5Ni4xOTAzIDUwNy4zNiwxNDI4LjcxMDMgIiBmaWxsPSJub25lIiBpZD0iaHJfbWFuYWdlci10by1VQ19IUl8wMSIgc3R5bGU9InN0cm9rZTojMTgxODE4O3N0cm9rZS13aWR0aDoxLjA7Ii8+PHBvbHlnb24gZmlsbD0iIzE4MTgxOCIgcG9pbnRzPSI1MTEuMDksMTQzMy40MSw1MDguNjI4MSwxNDIzLjg3MzgsNTA3Ljk4MTcsMTQyOS40OTM2LDUwMi4zNjE5LDE0MjguODQ3MSw1MTEuMDksMTQzMy40MSIgc3R5bGU9InN0cm9rZTojMTgxODE4O3N0cm9rZS13aWR0aDoxLjA7Ii8+PHRleHQgZmlsbD0iIzAwMDAwMCIgZm9udC1mYW1pbHk9InNhbnMtc2VyaWYiIGZvbnQtc2l6ZT0iMTMiIGxlbmd0aEFkanVzdD0ic3BhY2luZyIgdGV4dExlbmd0aD0iMTA0IiB4PSIyMDguNSIgeT0iMTI1NS4yODkxIj5BcHByb3ZlIFJlcXVlc3Q8L3RleHQ+PC9nPjwhLS1saW5rIGhyX21hbmFnZXIgdG8gVUNfSFJfMDEtLT48ZyBpZD0ibGlua19ocl9tYW5hZ2VyX1VDX0hSXzAxIj48cGF0aCBkPSJNNzUuNDEsMTEzMC42OSBDODYuNTksMTIxMC4wNyAxMTYuNTksMTM5MC4yNyAxNjMsMTQyOCBDMjA1LjgyLDE0NjIuOCAzNTMuODM3OSwxNDYwLjk5OCA0NDYuNDU3OSwxNDU2LjIzOCAiIGZpbGw9Im5vbmUiIGlkPSJocl9tYW5hZ2VyLXRvLVVDX0hSXzAxLTEiIHN0eWxlPSJzdHJva2U6IzE4MTgxODtzdHJva2Utd2lkdGg6MS4wOyIvPjxwb2x5Z29uIGZpbGw9IiMxODE4MTgiIHBvaW50cz0iNDUyLjQ1LDE0NTUuOTMsNDQzLjI1NjYsMTQ1Mi4zOTcyLDQ0Ny40NTY2LDE0NTYuMTg2Niw0NDMuNjY3MiwxNDYwLjM4NjcsNDUyLjQ1LDE0NTUuOTMiIHN0eWxlPSJzdHJva2U6IzE4MTgxODtzdHJva2Utd2lkdGg6MS4wOyIvPjx0ZXh0IGZpbGw9IiMwMDAwMDAiIGZvbnQtZmFtaWx5PSJzYW5zLXNlcmlmIiBmb250LXNpemU9IjEzIiBsZW5ndGhBZGp1c3Q9InNwYWNpbmciIHRleHRMZW5ndGg9IjEwMCIgeD0iMjEwLjUiIHk9IjE0MjYuMjg5MSI+Tm90aWZ5IEVtcGxveWVlPC90ZXh0PjwvZz48IS0tbGluayBocl9tYW5hZ2VyIHRvIFVDX0hSXzAyLS0+PGcgaWQ9ImxpbmtfaHJfbWFuYWdlcl9VQ19IUl8wMiI+PHBhdGggZD0iTTc3LjY2LDEwNTUuMjggQzg4LjExLDEwMTIuMDQgMTEyLjEzLDk0My4xMyAxNjMsOTEyIEMyNjIuNzYsODUwLjk0IDQwMS42NTY4LDg5OC42NTE2IDQ3NC4wNTY4LDkzMS4xNzE2ICIgZmlsbD0ibm9uZSIgaWQ9ImhyX21hbmFnZXItdG8tVUNfSFJfMDIiIHN0eWxlPSJzdHJva2U6IzE4MTgxODtzdHJva2Utd2lkdGg6MS4wOyIvPjxwb2x5Z29uIGZpbGw9IiMxODE4MTgiIHBvaW50cz0iNDc5LjUzLDkzMy42Myw0NzIuOTU5MSw5MjYuMjkzNiw0NzQuOTY5LDkzMS41ODEzLDQ2OS42ODEyLDkzMy41OTEyLDQ3OS41Myw5MzMuNjMiIHN0eWxlPSJzdHJva2U6IzE4MTgxODtzdHJva2Utd2lkdGg6MS4wOyIvPjx0ZXh0IGZpbGw9IiMwMDAwMDAiIGZvbnQtZmFtaWx5PSJzYW5zLXNlcmlmIiBmb250LXNpemU9IjEzIiBsZW5ndGhBZGp1c3Q9InNwYWNpbmciIHRleHRMZW5ndGg9IjE1OSIgeD0iMTgxIiB5PSI4ODEuMjg5MSI+QWNjZXNzIEVtcGxveWVlIFJlY29yZHM8L3RleHQ+PC9nPjwhLS1saW5rIGhyX21hbmFnZXIgdG8gVUNfSFJfMDItLT48ZyBpZD0ibGlua19ocl9tYW5hZ2VyX1VDX0hSXzAyIj48cGF0aCBkPSJNODYuNzEsMTA1NS4yMiBDMTAxLjc1LDEwMjUuNDEgMTI3LjIxLDk4NS44MSAxNjMsOTY3IEMyMDUuODYsOTQ0LjQ2IDMyMi4zMjYsOTQ0LjgyMTMgNDEyLjg5Niw5NDguODgxMyAiIGZpbGw9Im5vbmUiIGlkPSJocl9tYW5hZ2VyLXRvLVVDX0hSXzAyLTEiIHN0eWxlPSJzdHJva2U6IzE4MTgxODtzdHJva2Utd2lkdGg6MS4wOyIvPjxwb2x5Z29uIGZpbGw9IiMxODE4MTgiIHBvaW50cz0iNDE4Ljg5LDk0OS4xNSw0MTAuMDc4Miw5NDQuNzUxLDQxMy44OTUsOTQ4LjkyNjEsNDA5LjcxOTksOTUyLjc0MjksNDE4Ljg5LDk0OS4xNSIgc3R5bGU9InN0cm9rZTojMTgxODE4O3N0cm9rZS13aWR0aDoxLjA7Ii8+PHRleHQgZmlsbD0iIzAwMDAwMCIgZm9udC1mYW1pbHk9InNhbnMtc2VyaWYiIGZvbnQtc2l6ZT0iMTMiIGxlbmd0aEFkanVzdD0ic3BhY2luZyIgdGV4dExlbmd0aD0iMTY2IiB4PSIxNzcuNSIgeT0iOTQ0LjI4OTEiPkVkaXQgRW1wbG95ZWUgSW5mb3JtYXRpb248L3RleHQ+PC9nPjwhLS1saW5rIGhyX21hbmFnZXIgdG8gVUNfSFJfMDItLT48ZyBpZD0ibGlua19ocl9tYW5hZ2VyX1VDX0hSXzAyIj48cGF0aCBkPSJNMTA0LjgsMTA2MC4yNiBDMTIxLjIxLDEwNDYuMzcgMTQxLjg3LDEwMzEuMjcgMTYzLDEwMjIgQzI0My41NSw5ODYuNjQgMjcxLjQ3LDEwMDMuODUgMzU4LDk4OCBDMzg1LjM2LDk4Mi45OCA0MDkuMzE4NCw5NzguNDQ1NiA0MzYuMDg4NCw5NzMuMjg1NiAiIGZpbGw9Im5vbmUiIGlkPSJocl9tYW5hZ2VyLXRvLVVDX0hSXzAyLTIiIHN0eWxlPSJzdHJva2U6IzE4MTgxODtzdHJva2Utd2lkdGg6MS4wOyIvPjxwb2x5Z29uIGZpbGw9IiMxODE4MTgiIHBvaW50cz0iNDQxLjk4LDk3Mi4xNSw0MzIuMzg1Niw5NjkuOTI1Nyw0MzcuMDcwNCw5NzMuMDk2Myw0MzMuODk5Nyw5NzcuNzgxMSw0NDEuOTgsOTcyLjE1IiBzdHlsZT0ic3Ryb2tlOiMxODE4MTg7c3Ryb2tlLXdpZHRoOjEuMDsiLz48dGV4dCBmaWxsPSIjMDAwMDAwIiBmb250LWZhbWlseT0ic2Fucy1zZXJpZiIgZm9udC1zaXplPSIxMyIgbGVuZ3RoQWRqdXN0PSJzcGFjaW5nIiB0ZXh0TGVuZ3RoPSI4NCIgeD0iMjE4LjUiIHk9Ijk4Ni4yODkxIj5TYXZlIENoYW5nZXM8L3RleHQ+PC9nPjwhLS1saW5rIGhyX21hbmFnZXIgdG8gVUNfSFJfMDItLT48ZyBpZD0ibGlua19ocl9tYW5hZ2VyX1VDX0hSXzAyIj48cGF0aCBkPSJNMTA0LjY4LDEwODcuMDkgQzE4MC41NiwxMDczLjk2IDM1Ni40OSwxMDQzLjUxIDM1OCwxMDQzIEM0MDUuMjYsMTAyNi45OCA0NTAuMzcxMSwxMDAyLjE0MzYgNDgzLjE1MTEsOTgyLjI0MzYgIiBmaWxsPSJub25lIiBpZD0iaHJfbWFuYWdlci10by1VQ19IUl8wMi0zIiBzdHlsZT0ic3Ryb2tlOiMxODE4MTg7c3Ryb2tlLXdpZHRoOjEuMDsiLz48cG9seWdvbiBmaWxsPSIjMTgxODE4IiBwb2ludHM9IjQ4OC4yOCw5NzkuMTMsNDc4LjUxMDksOTgwLjM4MTIsNDg0LjAwNTksOTgxLjcyNDcsNDgyLjY2MjQsOTg3LjIxOTcsNDg4LjI4LDk3OS4xMyIgc3R5bGU9InN0cm9rZTojMTgxODE4O3N0cm9rZS13aWR0aDoxLjA7Ii8+PHRleHQgZmlsbD0iIzAwMDAwMCIgZm9udC1mYW1pbHk9InNhbnMtc2VyaWYiIGZvbnQtc2l6ZT0iMTMiIGxlbmd0aEFkanVzdD0ic3BhY2luZyIgdGV4dExlbmd0aD0iMTAwIiB4PSIyMTAuNSIgeT0iMTA0MS4yODkxIj5Ob3RpZnkgRW1wbG95ZWU8L3RleHQ+PC9nPjwhLS1saW5rIGhyX3Byb2Zlc3Npb25hbCB0byBVQ19IUl8wMy0tPjxnIGlkPSJsaW5rX2hyX3Byb2Zlc3Npb25hbF9VQ19IUl8wMyI+PHBhdGggZD0iTTEyMi4zNiw0ODYuNDIgQzEzNS4yNCw0ODAuNDYgMTQ5LjMsNDc1LjA5IDE2Myw0NzIgQzI0Ny41NCw0NTIuOTEgMjcyLjA2LDQ2MC44MyAzNTgsNDcyIEMzOTEuMjEsNDc2LjMxIDQyMS40NjgzLDQ4My41OTU4IDQ1MS40NzgzLDQ5Mi4zMTU4ICIgZmlsbD0ibm9uZSIgaWQ9ImhyX3Byb2Zlc3Npb25hbC10by1VQ19IUl8wMyIgc3R5bGU9InN0cm9rZTojMTgxODE4O3N0cm9rZS13aWR0aDoxLjA7Ii8+PHBvbHlnb24gZmlsbD0iIzE4MTgxOCIgcG9pbnRzPSI0NTcuMjQsNDkzLjk5LDQ0OS43MTM2LDQ4Ny42Mzc2LDQ1Mi40Mzg2LDQ5Mi41OTQ5LDQ0Ny40ODEzLDQ5NS4zMTk5LDQ1Ny4yNCw0OTMuOTkiIHN0eWxlPSJzdHJva2U6IzE4MTgxODtzdHJva2Utd2lkdGg6MS4wOyIvPjx0ZXh0IGZpbGw9IiMwMDAwMDAiIGZvbnQtZmFtaWx5PSJzYW5zLXNlcmlmIiBmb250LXNpemU9IjEzIiBsZW5ndGhBZGp1c3Q9InNwYWNpbmciIHRleHRMZW5ndGg9IjYxIiB4PSIyMzAiIHk9IjQ1OC4yODkxIj5TZXQgR29hbHM8L3RleHQ+PC9nPjwhLS1saW5rIGhyX3Byb2Zlc3Npb25hbCB0byBVQ19IUl8wMy0tPjxnIGlkPSJsaW5rX2hyX3Byb2Zlc3Npb25hbF9VQ19IUl8wMyI+PHBhdGggZD0iTTEyMi4xNCw1MTYgQzE5MC40Nyw1MTYgMzA2Ljk5LDUxNiAzOTguOTUsNTE2ICIgZmlsbD0ibm9uZSIgaWQ9ImhyX3Byb2Zlc3Npb25hbC10by1VQ19IUl8wMy0xIiBzdHlsZT0ic3Ryb2tlOiMxODE4MTg7c3Ryb2tlLXdpZHRoOjEuMDsiLz48cG9seWdvbiBmaWxsPSIjMTgxODE4IiBwb2ludHM9IjQwNC45NSw1MTYsMzk1Ljk1LDUxMiwzOTkuOTUsNTE2LDM5NS45NSw1MjAsNDA0Ljk1LDUxNiIgc3R5bGU9InN0cm9rZTojMTgxODE4O3N0cm9rZS13aWR0aDoxLjA7Ii8+PHRleHQgZmlsbD0iIzAwMDAwMCIgZm9udC1mYW1pbHk9InNhbnMtc2VyaWYiIGZvbnQtc2l6ZT0iMTMiIGxlbmd0aEFkanVzdD0ic3BhY2luZyIgdGV4dExlbmd0aD0iMTIyIiB4PSIxOTkuNSIgeT0iNTE0LjI4OTEiPkNvbmR1Y3QgRXZhbHVhdGlvbjwvdGV4dD48L2c+PCEtLWxpbmsgaHJfcHJvZmVzc2lvbmFsIHRvIFVDX0hSXzAzLS0+PGcgaWQ9ImxpbmtfaHJfcHJvZmVzc2lvbmFsX1VDX0hSXzAzIj48cGF0aCBkPSJNMTIyLjQzLDUzMS4yNiBDMTM1LjU1LDUzNC40NyAxNDkuNyw1MzcuMzcgMTYzLDUzOSBDMjUyLjU3LDU0OS45NyAzNDkuMzcxNiw1NDIuMTk1NSA0MjIuMzcxNiw1MzIuNTU1NSAiIGZpbGw9Im5vbmUiIGlkPSJocl9wcm9mZXNzaW9uYWwtdG8tVUNfSFJfMDMtMiIgc3R5bGU9InN0cm9rZTojMTgxODE4O3N0cm9rZS13aWR0aDoxLjA7Ii8+PHBvbHlnb24gZmlsbD0iIzE4MTgxOCIgcG9pbnRzPSI0MjguMzIsNTMxLjc3LDQxOC44NzM4LDUyOC45ODI3LDQyMy4zNjMsNTMyLjQyNDYsNDE5LjkyMTEsNTM2LjkxMzgsNDI4LjMyLDUzMS43NyIgc3R5bGU9InN0cm9rZTojMTgxODE4O3N0cm9rZS13aWR0aDoxLjA7Ii8+PHRleHQgZmlsbD0iIzAwMDAwMCIgZm9udC1mYW1pbHk9InNhbnMtc2VyaWYiIGZvbnQtc2l6ZT0iMTMiIGxlbmd0aEFkanVzdD0ic3BhY2luZyIgdGV4dExlbmd0aD0iMTExIiB4PSIyMDUiIHk9IjUzNy4yODkxIj5Qcm92aWRlIEZlZWRiYWNrPC90ZXh0PjwvZz48IS0tbGluayBocl9wcm9mZXNzaW9uYWwgdG8gVUNfSFJfMDMtLT48ZyBpZD0ibGlua19ocl9wcm9mZXNzaW9uYWxfVUNfSFJfMDMiPjxwYXRoIGQ9Ik0xMjIuMzgsNTUwLjUxIEMxMzUuMTUsNTU3LjMgMTQ5LjE1LDU2My40MyAxNjMsNTY3IEMyNDYuOTMsNTg4LjYgMjcyLjI5LDU3OS44MyAzNTgsNTY3IEMzOTQuMzMsNTYxLjU2IDQyOC4wMTExLDU1MS43NTU2IDQ1OS4zMzExLDU0MC44OTU2ICIgZmlsbD0ibm9uZSIgaWQ9ImhyX3Byb2Zlc3Npb25hbC10by1VQ19IUl8wMy0zIiBzdHlsZT0ic3Ryb2tlOiMxODE4MTg7c3Ryb2tlLXdpZHRoOjEuMDsiLz48cG9seWdvbiBmaWxsPSIjMTgxODE4IiBwb2ludHM9IjQ2NSw1MzguOTMsNDU1LjE4NjIsNTM4LjA5OTIsNDYwLjI3NTksNTQwLjU2OCw0NTcuODA3MSw1NDUuNjU3Nyw0NjUsNTM4LjkzIiBzdHlsZT0ic3Ryb2tlOiMxODE4MTg7c3Ryb2tlLXdpZHRoOjEuMDsiLz48dGV4dCBmaWxsPSIjMDAwMDAwIiBmb250LWZhbWlseT0ic2Fucy1zZXJpZiIgZm9udC1zaXplPSIxMyIgbGVuZ3RoQWRqdXN0PSJzcGFjaW5nIiB0ZXh0TGVuZ3RoPSIxODUiIHg9IjE2OCIgeT0iNTY1LjI4OTEiPkdlbmVyYXRlIFBlcmZvcm1hbmNlIFJlcG9ydDwvdGV4dD48L2c+PCEtLWxpbmsgaHJfYWRtaW5pc3RyYXRvciB0byBVQ19IUl8wNC0tPjxnIGlkPSJsaW5rX2hyX2FkbWluaXN0cmF0b3JfVUNfSFJfMDQiPjxwYXRoIGQ9Ik0xMjYuMzEsNzA0LjYzIEMxMzguMDgsNjk5LjQgMTUwLjY4LDY5NC43OCAxNjMsNjkyIEMyNDcuNTQsNjcyLjkxIDI3Mi4wNiw2ODAuODMgMzU4LDY5MiBDMzk1LjUxLDY5Ni44NyA0MzAuODU3Myw3MDUuOTMxNyA0NjIuODM3Myw3MTUuNjExNyAiIGZpbGw9Im5vbmUiIGlkPSJocl9hZG1pbmlzdHJhdG9yLXRvLVVDX0hSXzA0IiBzdHlsZT0ic3Ryb2tlOiMxODE4MTg7c3Ryb2tlLXdpZHRoOjEuMDsiLz48cG9seWdvbiBmaWxsPSIjMTgxODE4IiBwb2ludHM9IjQ2OC41OCw3MTcuMzUsNDYxLjEyNDgsNzEwLjkxNDIsNDYzLjc5NDQsNzE1LjkwMTUsNDU4LjgwNzEsNzE4LjU3MTEsNDY4LjU4LDcxNy4zNSIgc3R5bGU9InN0cm9rZTojMTgxODE4O3N0cm9rZS13aWR0aDoxLjA7Ii8+PHRleHQgZmlsbD0iIzAwMDAwMCIgZm9udC1mYW1pbHk9InNhbnMtc2VyaWYiIGZvbnQtc2l6ZT0iMTMiIGxlbmd0aEFkanVzdD0ic3BhY2luZyIgdGV4dExlbmd0aD0iMTcyIiB4PSIxNzQuNSIgeT0iNjc4LjI4OTEiPkFjY2VzcyBUcmFpbmluZyBSZXNvdXJjZXM8L3RleHQ+PC9nPjwhLS1saW5rIGhyX2FkbWluaXN0cmF0b3IgdG8gVUNfSFJfMDQtLT48ZyBpZD0ibGlua19ocl9hZG1pbmlzdHJhdG9yX1VDX0hSXzA0Ij48cGF0aCBkPSJNMTI2LjE3LDczNiBDMjAwLjI4LDczNiAzMjYuNjQsNzM2IDQxOC4zNCw3MzYgIiBmaWxsPSJub25lIiBpZD0iaHJfYWRtaW5pc3RyYXRvci10by1VQ19IUl8wNC0xIiBzdHlsZT0ic3Ryb2tlOiMxODE4MTg7c3Ryb2tlLXdpZHRoOjEuMDsiLz48cG9seWdvbiBmaWxsPSIjMTgxODE4IiBwb2ludHM9IjQyNC4zNCw3MzYsNDE1LjM0LDczMiw0MTkuMzQsNzM2LDQxNS4zNCw3NDAsNDI0LjM0LDczNiIgc3R5bGU9InN0cm9rZTojMTgxODE4O3N0cm9rZS13aWR0aDoxLjA7Ii8+PHRleHQgZmlsbD0iIzAwMDAwMCIgZm9udC1mYW1pbHk9InNhbnMtc2VyaWYiIGZvbnQtc2l6ZT0iMTMiIGxlbmd0aEFkanVzdD0ic3BhY2luZyIgdGV4dExlbmd0aD0iMTc3IiB4PSIxNzIiIHk9IjczNC4yODkxIj5TY2hlZHVsZSBUcmFpbmluZyBTZXNzaW9uczwvdGV4dD48L2c+PCEtLWxpbmsgaHJfYWRtaW5pc3RyYXRvciB0byBVQ19IUl8wNC0tPjxnIGlkPSJsaW5rX2hyX2FkbWluaXN0cmF0b3JfVUNfSFJfMDQiPjxwYXRoIGQ9Ik0xMjYuMzQsNzUyLjIgQzEzOC4zNCw3NTUuMDMgMTUxLjAxLDc1Ny41MyAxNjMsNzU5IEMyNTkuNDQsNzcwLjgxIDM2NS4xOTk2LDc2MC44MjM5IDQzOC42MTk2LDc1MC4zOTM5ICIgZmlsbD0ibm9uZSIgaWQ9ImhyX2FkbWluaXN0cmF0b3ItdG8tVUNfSFJfMDQtMiIgc3R5bGU9InN0cm9rZTojMTgxODE4O3N0cm9rZS13aWR0aDoxLjA7Ii8+PHBvbHlnb24gZmlsbD0iIzE4MTgxOCIgcG9pbnRzPSI0NDQuNTYsNzQ5LjU1LDQzNS4wODY5LDc0Ni44NTU2LDQzOS42MDk3LDc1MC4yNTMyLDQzNi4yMTIxLDc1NC43NzYxLDQ0NC41Niw3NDkuNTUiIHN0eWxlPSJzdHJva2U6IzE4MTgxODtzdHJva2Utd2lkdGg6MS4wOyIvPjx0ZXh0IGZpbGw9IiMwMDAwMDAiIGZvbnQtZmFtaWx5PSJzYW5zLXNlcmlmIiBmb250LXNpemU9IjEzIiBsZW5ndGhBZGp1c3Q9InNwYWNpbmciIHRleHRMZW5ndGg9IjEyNyIgeD0iMTk3IiB5PSI3NTcuMjg5MSI+VHJhY2sgUGFydGljaXBhdGlvbjwvdGV4dD48L2c+PCEtLWxpbmsgaHJfYWRtaW5pc3RyYXRvciB0byBVQ19IUl8wNC0tPjxnIGlkPSJsaW5rX2hyX2FkbWluaXN0cmF0b3JfVUNfSFJfMDQiPjxwYXRoIGQ9Ik0xMjYuMzUsNzcyLjU3IEMxMzguMDIsNzc4LjUzIDE1MC41Nyw3ODMuOCAxNjMsNzg3IEMyNDYuOTMsODA4LjYgMjcyLjI5LDc5OS44MyAzNTgsNzg3IEMzOTguMjEsNzgwLjk4IDQzNi40ODI2LDc2OS4yMjY3IDQ2OS4xMTI2LDc1Ny41MTY3ICIgZmlsbD0ibm9uZSIgaWQ9ImhyX2FkbWluaXN0cmF0b3ItdG8tVUNfSFJfMDQtMyIgc3R5bGU9InN0cm9rZTojMTgxODE4O3N0cm9rZS13aWR0aDoxLjA7Ii8+PHBvbHlnb24gZmlsbD0iIzE4MTgxOCIgcG9pbnRzPSI0NzQuNzYsNzU1LjQ5LDQ2NC45Mzc5LDc1NC43NjUxLDQ3MC4wNTM5LDc1Ny4xNzg5LDQ2Ny42NDAxLDc2Mi4yOTQ5LDQ3NC43Niw3NTUuNDkiIHN0eWxlPSJzdHJva2U6IzE4MTgxODtzdHJva2Utd2lkdGg6MS4wOyIvPjx0ZXh0IGZpbGw9IiMwMDAwMDAiIGZvbnQtZmFtaWx5PSJzYW5zLXNlcmlmIiBmb250LXNpemU9IjEzIiBsZW5ndGhBZGp1c3Q9InNwYWNpbmciIHRleHRMZW5ndGg9IjExMCIgeD0iMjA1LjUiIHk9Ijc4NS4yODkxIj5Nb25pdG9yIFByb2dyZXNzPC90ZXh0PjwvZz48IS0tbGluayBlbXBsb3llZSB0byBVQ19IUl8wNS0tPjxnIGlkPSJsaW5rX2VtcGxveWVlX1VDX0hSXzA1Ij48cGF0aCBkPSJNNzkuMTMsMTQ5NS4zNSBDOTAuNzgsMTQ1My41MSAxMTUuNzUsMTM4Ny4yMSAxNjMsMTM1MiBDMjMzLjY3LDEyOTkuMzMgMjc2LjQ3LDEzNDkuNDYgMzU4LDEzMTYgQzQxOC4xMSwxMjkxLjMzIDQ3NC4yMjA1LDEyNDYuNzYxOCA1MDIuOTAwNSwxMjIyLjEwMTggIiBmaWxsPSJub25lIiBpZD0iZW1wbG95ZWUtdG8tVUNfSFJfMDUiIHN0eWxlPSJzdHJva2U6IzE4MTgxODtzdHJva2Utd2lkdGg6MS4wOyIvPjxwb2x5Z29uIGZpbGw9IiMxODE4MTgiIHBvaW50cz0iNTA3LjQ1LDEyMTguMTksNDk4LjAxNzksMTIyMS4wMjQ3LDUwMy42NTg4LDEyMjEuNDQ5OCw1MDMuMjMzNiwxMjI3LjA5MDcsNTA3LjQ1LDEyMTguMTkiIHN0eWxlPSJzdHJva2U6IzE4MTgxODtzdHJva2Utd2lkdGg6MS4wOyIvPjx0ZXh0IGZpbGw9IiMwMDAwMDAiIGZvbnQtZmFtaWx5PSJzYW5zLXNlcmlmIiBmb250LXNpemU9IjEzIiBsZW5ndGhBZGp1c3Q9InNwYWNpbmciIHRleHRMZW5ndGg9IjEzMSIgeD0iMTk1IiB5PSIxMzE0LjI4OTEiPkVudGVyIExlYXZlIFJlcXVlc3Q8L3RleHQ+PC9nPjwhLS1saW5rIGVtcGxveWVlIHRvIFVDX0hSXzA1LS0+PGcgaWQ9ImxpbmtfZW1wbG95ZWVfVUNfSFJfMDUiPjxwYXRoIGQ9Ik04OC4wOSwxNDk1LjM1IEMxMDMuNjMsMTQ2Ni40NCAxMjkuMSwxNDI4LjAyIDE2MywxNDA3IEMyMzcuNzcsMTM2MC42MyAyODAuMTQsMTQxMy45NSAzNTgsMTM3MyBDNDMxLjEyLDEzMzQuNTMgNDg4LjI2ODMsMTI1Ny4zODY1IDUxMS4yMjgzLDEyMjMuMjk2NSAiIGZpbGw9Im5vbmUiIGlkPSJlbXBsb3llZS10by1VQ19IUl8wNS0xIiBzdHlsZT0ic3Ryb2tlOiMxODE4MTg7c3Ryb2tlLXdpZHRoOjEuMDsiLz48cG9seWdvbiBmaWxsPSIjMTgxODE4IiBwb2ludHM9IjUxNC41OCwxMjE4LjMyLDUwNi4yMzQ3LDEyMjMuNTUwMyw1MTEuNzg2OSwxMjIyLjQ2NzEsNTEyLjg3MDEsMTIyOC4wMTkzLDUxNC41OCwxMjE4LjMyIiBzdHlsZT0ic3Ryb2tlOiMxODE4MTg7c3Ryb2tlLXdpZHRoOjEuMDsiLz48dGV4dCBmaWxsPSIjMDAwMDAwIiBmb250LWZhbWlseT0ic2Fucy1zZXJpZiIgZm9udC1zaXplPSIxMyIgbGVuZ3RoQWRqdXN0PSJzcGFjaW5nIiB0ZXh0TGVuZ3RoPSIxMzYiIHg9IjE5Mi41IiB5PSIxMzcxLjI4OTEiPlN1Ym1pdCBMZWF2ZSBSZXF1ZXN0PC90ZXh0PjwvZz48IS0tbGluayBocl9tYW5hZ2VyIHRvIFVDX0hSXzA1LS0+PGcgaWQ9ImxpbmtfaHJfbWFuYWdlcl9VQ19IUl8wNSI+PHBhdGggZD0iTTEwNC43MywxMDk0LjY3IEMxNTkuMjIsMTA5OCAyNjguNjUsMTEwNy4zNyAzNTgsMTEzMiBDNDA5LjIsMTE0Ni4xMSA0NjAuMDA2OCwxMTY5LjgyMDIgNDkyLjI2NjgsMTE4Ni4xNTAyICIgZmlsbD0ibm9uZSIgaWQ9ImhyX21hbmFnZXItdG8tVUNfSFJfMDUiIHN0eWxlPSJzdHJva2U6IzE4MTgxODtzdHJva2Utd2lkdGg6MS4wOyIvPjxwb2x5Z29uIGZpbGw9IiMxODE4MTgiIHBvaW50cz0iNDk3LjYyLDExODguODYsNDkxLjM5NjcsMTE4MS4yMjY1LDQ5My4xNTksMTE4Ni42MDE4LDQ4Ny43ODM2LDExODguMzY0MSw0OTcuNjIsMTE4OC44NiIgc3R5bGU9InN0cm9rZTojMTgxODE4O3N0cm9rZS13aWR0aDoxLjA7Ii8+PHRleHQgZmlsbD0iIzAwMDAwMCIgZm9udC1mYW1pbHk9InNhbnMtc2VyaWYiIGZvbnQtc2l6ZT0iMTMiIGxlbmd0aEFkanVzdD0ic3BhY2luZyIgdGV4dExlbmd0aD0iMTM3IiB4PSIxOTIiIHk9IjEwOTcuMjg5MSI+UmV2aWV3IExlYXZlIFJlcXVlc3Q8L3RleHQ+PC9nPjwhLS1saW5rIGhyX21hbmFnZXIgdG8gVUNfSFJfMDUtLT48ZyBpZD0ibGlua19ocl9tYW5hZ2VyX1VDX0hSXzA1Ij48cGF0aCBkPSJNMTA0LjU3LDExMjAuMjUgQzEyMS4yNSwxMTMyLjIgMTQyLjE5LDExNDUuMjUgMTYzLDExNTMgQzE5MC43MiwxMTYzLjMyIDM2NC40MTAzLDExODQuNDk2MSA0NTkuNTgwMywxMTk1LjU3NjEgIiBmaWxsPSJub25lIiBpZD0iaHJfbWFuYWdlci10by1VQ19IUl8wNS0xIiBzdHlsZT0ic3Ryb2tlOiMxODE4MTg7c3Ryb2tlLXdpZHRoOjEuMDsiLz48cG9seWdvbiBmaWxsPSIjMTgxODE4IiBwb2ludHM9IjQ2NS41NCwxMTk2LjI3LDQ1Ny4wNjMsMTE5MS4yNTYxLDQ2MC41NzM1LDExOTUuNjkxOCw0NTYuMTM3OCwxMTk5LjIwMjQsNDY1LjU0LDExOTYuMjciIHN0eWxlPSJzdHJva2U6IzE4MTgxODtzdHJva2Utd2lkdGg6MS4wOyIvPjx0ZXh0IGZpbGw9IiMwMDAwMDAiIGZvbnQtZmFtaWx5PSJzYW5zLXNlcmlmIiBmb250LXNpemU9IjEzIiBsZW5ndGhBZGp1c3Q9InNwYWNpbmciIHRleHRMZW5ndGg9IjE0NyIgeD0iMTg3IiB5PSIxMTUxLjI4OTEiPkFwcHJvdmUgb3IgRGVueSBMZWF2ZTwvdGV4dD48L2c+PCEtLWxpbmsgaHJfbWFuYWdlciB0byBVQ19IUl8wNS0tPjxnIGlkPSJsaW5rX2hyX21hbmFnZXJfVUNfSFJfMDUiPjxwYXRoIGQ9Ik04OS45MiwxMTMwLjc3IEMxMDUuNjksMTE1Ni45NCAxMzAuNiwxMTg5Ljc0IDE2MywxMjA1IEMyNjguMzIsMTI1NC42MSA0MDQuOTc5OSwxMjMyLjY0NjEgNDc1LjQ2OTksMTIxNi4wMzYxICIgZmlsbD0ibm9uZSIgaWQ9ImhyX21hbmFnZXItdG8tVUNfSFJfMDUtMiIgc3R5bGU9InN0cm9rZTojMTgxODE4O3N0cm9rZS13aWR0aDoxLjA7Ii8+PHBvbHlnb24gZmlsbD0iIzE4MTgxOCIgcG9pbnRzPSI0ODEuMzEsMTIxNC42Niw0NzEuNjMyNSwxMjEyLjgzMDgsNDc2LjQ0MzMsMTIxNS44MDY4LDQ3My40NjczLDEyMjAuNjE3Niw0ODEuMzEsMTIxNC42NiIgc3R5bGU9InN0cm9rZTojMTgxODE4O3N0cm9rZS13aWR0aDoxLjA7Ii8+PHRleHQgZmlsbD0iIzAwMDAwMCIgZm9udC1mYW1pbHk9InNhbnMtc2VyaWYiIGZvbnQtc2l6ZT0iMTMiIGxlbmd0aEFkanVzdD0ic3BhY2luZyIgdGV4dExlbmd0aD0iMTAwIiB4PSIyMTAuNSIgeT0iMTIwMy4yODkxIj5Ob3RpZnkgRW1wbG95ZWU8L3RleHQ+PC9nPjwhLS1saW5rIHBheXJvbGxfYWRtaW4gdG8gVUNfSFJfMDYtLT48ZyBpZD0ibGlua19wYXlyb2xsX2FkbWluX1VDX0hSXzA2Ij48cGF0aCBkPSJNMTE1LjYzLDQ5LjYzIEMxMzAuMjUsNDIuNDQgMTQ2Ljg3LDM1LjY0IDE2MywzMiBDMjQ3LjU0LDEyLjkxIDI3Mi4wNiwyMC44MyAzNTgsMzIgQzM5OS44MSwzNy40MyA0NDAuMzQ1NCw0OC40MjMgNDczLjQ3NTQsNTguODIzICIgZmlsbD0ibm9uZSIgaWQ9InBheXJvbGxfYWRtaW4tdG8tVUNfSFJfMDYiIHN0eWxlPSJzdHJva2U6IzE4MTgxODtzdHJva2Utd2lkdGg6MS4wOyIvPjxwb2x5Z29uIGZpbGw9IiMxODE4MTgiIHBvaW50cz0iNDc5LjIsNjAuNjIsNDcxLjgxMTIsNTQuMTA4MSw0NzQuNDI5NSw1OS4xMjI1LDQ2OS40MTUxLDYxLjc0MDgsNDc5LjIsNjAuNjIiIHN0eWxlPSJzdHJva2U6IzE4MTgxODtzdHJva2Utd2lkdGg6MS4wOyIvPjx0ZXh0IGZpbGw9IiMwMDAwMDAiIGZvbnQtZmFtaWx5PSJzYW5zLXNlcmlmIiBmb250LXNpemU9IjEzIiBsZW5ndGhBZGp1c3Q9InNwYWNpbmciIHRleHRMZW5ndGg9IjEyMSIgeD0iMjAwIiB5PSIxOS4yODkxIj5DYWxjdWxhdGUgU2FsYXJpZXM8L3RleHQ+PC9nPjwhLS1saW5rIHBheXJvbGxfYWRtaW4gdG8gVUNfSFJfMDYtLT48ZyBpZD0ibGlua19wYXlyb2xsX2FkbWluX1VDX0hSXzA2Ij48cGF0aCBkPSJNMTE1LjY5LDc2IEMxOTIuMTcsNzYgMzQyLjEyLDc2IDQzNy43NSw3NiAiIGZpbGw9Im5vbmUiIGlkPSJwYXlyb2xsX2FkbWluLXRvLVVDX0hSXzA2LTEiIHN0eWxlPSJzdHJva2U6IzE4MTgxODtzdHJva2Utd2lkdGg6MS4wOyIvPjxwb2x5Z29uIGZpbGw9IiMxODE4MTgiIHBvaW50cz0iNDQzLjc1LDc2LDQzNC43NSw3Miw0MzguNzUsNzYsNDM0Ljc1LDgwLDQ0My43NSw3NiIgc3R5bGU9InN0cm9rZTojMTgxODE4O3N0cm9rZS13aWR0aDoxLjA7Ii8+PHRleHQgZmlsbD0iIzAwMDAwMCIgZm9udC1mYW1pbHk9InNhbnMtc2VyaWYiIGZvbnQtc2l6ZT0iMTMiIGxlbmd0aEFkanVzdD0ic3BhY2luZyIgdGV4dExlbmd0aD0iMTkzIiB4PSIxNjQiIHk9Ijc0LjI4OTEiPlByb2Nlc3MgRGVkdWN0aW9ucyBhbmQgVGF4ZXM8L3RleHQ+PC9nPjwhLS1saW5rIHBheXJvbGxfYWRtaW4gdG8gVUNfSFJfMDYtLT48ZyBpZD0ibGlua19wYXlyb2xsX2FkbWluX1VDX0hSXzA2Ij48cGF0aCBkPSJNMTE1LjcyLDg5LjU4IEMxMzAuNjMsOTMuNDMgMTQ3LjQsOTcuMDkgMTYzLDk5IEMyNjYuNjIsMTExLjY5IDM4MS45MjgyLDk5LjE1MjQgNDU0LjM2ODIsODguMTMyNCAiIGZpbGw9Im5vbmUiIGlkPSJwYXlyb2xsX2FkbWluLXRvLVVDX0hSXzA2LTIiIHN0eWxlPSJzdHJva2U6IzE4MTgxODtzdHJva2Utd2lkdGg6MS4wOyIvPjxwb2x5Z29uIGZpbGw9IiMxODE4MTgiIHBvaW50cz0iNDYwLjMsODcuMjMsNDUwLjgwMDgsODQuNjI5MSw0NTUuMzU2OSw4Ny45ODIsNDUyLjAwMzksOTIuNTM4MSw0NjAuMyw4Ny4yMyIgc3R5bGU9InN0cm9rZTojMTgxODE4O3N0cm9rZS13aWR0aDoxLjA7Ii8+PHRleHQgZmlsbD0iIzAwMDAwMCIgZm9udC1mYW1pbHk9InNhbnMtc2VyaWYiIGZvbnQtc2l6ZT0iMTMiIGxlbmd0aEFkanVzdD0ic3BhY2luZyIgdGV4dExlbmd0aD0iMTE2IiB4PSIyMDIuNSIgeT0iOTcuMjg5MSI+R2VuZXJhdGUgUGF5c2xpcHM8L3RleHQ+PC9nPjwhLS1saW5rIHBheXJvbGxfYWRtaW4gdG8gVUNfSFJfMDYtLT48ZyBpZD0ibGlua19wYXlyb2xsX2FkbWluX1VDX0hSXzA2Ij48cGF0aCBkPSJNMTE1LjU2LDEwNy4zOSBDMTMwLjA1LDExNS43OCAxNDYuNiwxMjMuNyAxNjMsMTI4IEMyNDYuODQsMTQ5Ljk1IDI3Mi4zMiwxNDEuMDYgMzU4LDEyOCBDNDAyLjYxLDEyMS4xOSA0NDYuMDc5NiwxMDYuODE2NyA0NzkuMzE5Niw5NC4yMTY3ICIgZmlsbD0ibm9uZSIgaWQ9InBheXJvbGxfYWRtaW4tdG8tVUNfSFJfMDYtMyIgc3R5bGU9InN0cm9rZTojMTgxODE4O3N0cm9rZS13aWR0aDoxLjA7Ii8+PHBvbHlnb24gZmlsbD0iIzE4MTgxOCIgcG9pbnRzPSI0ODQuOTMsOTIuMDksNDc1LjA5NjUsOTEuNTM5OCw0ODAuMjU0Niw5My44NjIzLDQ3Ny45MzIxLDk5LjAyMDQsNDg0LjkzLDkyLjA5IiBzdHlsZT0ic3Ryb2tlOiMxODE4MTg7c3Ryb2tlLXdpZHRoOjEuMDsiLz48dGV4dCBmaWxsPSIjMDAwMDAwIiBmb250LWZhbWlseT0ic2Fucy1zZXJpZiIgZm9udC1zaXplPSIxMyIgbGVuZ3RoQWRqdXN0PSJzcGFjaW5nIiB0ZXh0TGVuZ3RoPSIxNjYiIHg9IjE3Ny41IiB5PSIxMjYuMjg5MSI+RmFjaWxpdGF0ZSBEaXJlY3QgRGVwb3NpdDwvdGV4dD48L2c+PCEtLWxpbmsgY29tcGxpYW5jZV9vZmZpY2VyIHRvIFVDX0hSXzA3LS0+PGcgaWQ9ImxpbmtfY29tcGxpYW5jZV9vZmZpY2VyX1VDX0hSXzA3Ij48cGF0aCBkPSJNMTMzLjExLDI2MS43MiBDMTQyLjg3LDI1Ny43MSAxNTMuMDMsMjU0LjI1IDE2MywyNTIgQzI0Ny41NCwyMzIuOTEgMjcyLjA2LDI0MC44MyAzNTgsMjUyIEMzODcuNjUsMjU1Ljg1IDQxMy43NjExLDI2MS43ODYyIDQ0MS42MjExLDI2OS41NjYyICIgZmlsbD0ibm9uZSIgaWQ9ImNvbXBsaWFuY2Vfb2ZmaWNlci10by1VQ19IUl8wNyIgc3R5bGU9InN0cm9rZTojMTgxODE4O3N0cm9rZS13aWR0aDoxLjA7Ii8+PHBvbHlnb24gZmlsbD0iIzE4MTgxOCIgcG9pbnRzPSI0NDcuNCwyNzEuMTgsNDM5LjgwNzUsMjY0LjkwNjcsNDQyLjU4NDIsMjY5LjgzNTIsNDM3LjY1NTgsMjcyLjYxMTksNDQ3LjQsMjcxLjE4IiBzdHlsZT0ic3Ryb2tlOiMxODE4MTg7c3Ryb2tlLXdpZHRoOjEuMDsiLz48dGV4dCBmaWxsPSIjMDAwMDAwIiBmb250LWZhbWlseT0ic2Fucy1zZXJpZiIgZm9udC1zaXplPSIxMyIgbGVuZ3RoQWRqdXN0PSJzcGFjaW5nIiB0ZXh0TGVuZ3RoPSIxMjEiIHg9IjIwMCIgeT0iMjM4LjI4OTEiPk1vbml0b3IgQ29tcGxpYW5jZTwvdGV4dD48L2c+PCEtLWxpbmsgY29tcGxpYW5jZV9vZmZpY2VyIHRvIFVDX0hSXzA3LS0+PGcgaWQ9ImxpbmtfY29tcGxpYW5jZV9vZmZpY2VyX1VDX0hSXzA3Ij48cGF0aCBkPSJNMTMzLjE1LDI5NiBDMTk4LjU4LDI5NiAyOTcuMjksMjk2IDM4MS45NCwyOTYgIiBmaWxsPSJub25lIiBpZD0iY29tcGxpYW5jZV9vZmZpY2VyLXRvLVVDX0hSXzA3LTEiIHN0eWxlPSJzdHJva2U6IzE4MTgxODtzdHJva2Utd2lkdGg6MS4wOyIvPjxwb2x5Z29uIGZpbGw9IiMxODE4MTgiIHBvaW50cz0iMzg3Ljk0LDI5NiwzNzguOTQsMjkyLDM4Mi45NCwyOTYsMzc4Ljk0LDMwMCwzODcuOTQsMjk2IiBzdHlsZT0ic3Ryb2tlOiMxODE4MTg7c3Ryb2tlLXdpZHRoOjEuMDsiLz48dGV4dCBmaWxsPSIjMDAwMDAwIiBmb250LWZhbWlseT0ic2Fucy1zZXJpZiIgZm9udC1zaXplPSIxMyIgbGVuZ3RoQWRqdXN0PSJzcGFjaW5nIiB0ZXh0TGVuZ3RoPSIxODQiIHg9IjE2OC41IiB5PSIyOTQuMjg5MSI+R2VuZXJhdGUgQ29tcGxpYW5jZSBSZXBvcnRzPC90ZXh0PjwvZz48IS0tbGluayBjb21wbGlhbmNlX29mZmljZXIgdG8gVUNfSFJfMDctLT48ZyBpZD0ibGlua19jb21wbGlhbmNlX29mZmljZXJfVUNfSFJfMDciPjxwYXRoIGQ9Ik0xMzMuMDYsMzEzLjczIEMxNDMsMzE1LjkyIDE1My4yMywzMTcuOCAxNjMsMzE5IEMyNDYuOCwzMjkuMjYgMzM2LjE2NDgsMzIzLjE2MTUgNDA3Ljg4NDgsMzE0LjM1MTUgIiBmaWxsPSJub25lIiBpZD0iY29tcGxpYW5jZV9vZmZpY2VyLXRvLVVDX0hSXzA3LTIiIHN0eWxlPSJzdHJva2U6IzE4MTgxODtzdHJva2Utd2lkdGg6MS4wOyIvPjxwb2x5Z29uIGZpbGw9IiMxODE4MTgiIHBvaW50cz0iNDEzLjg0LDMxMy42Miw0MDQuNDE5NSwzMTAuNzQ3MSw0MDguODc3MywzMTQuMjI5Niw0MDUuMzk0OCwzMTguNjg3NSw0MTMuODQsMzEzLjYyIiBzdHlsZT0ic3Ryb2tlOiMxODE4MTg7c3Ryb2tlLXdpZHRoOjEuMDsiLz48dGV4dCBmaWxsPSIjMDAwMDAwIiBmb250LWZhbWlseT0ic2Fucy1zZXJpZiIgZm9udC1zaXplPSIxMyIgbGVuZ3RoQWRqdXN0PSJzcGFjaW5nIiB0ZXh0TGVuZ3RoPSIxNTkiIHg9IjE4MSIgeT0iMzE3LjI4OTEiPkVuc3VyZSBQb2xpY3kgQWRoZXJlbmNlPC90ZXh0PjwvZz48IS0tbGluayBjb21wbGlhbmNlX29mZmljZXIgdG8gVUNfSFJfMDctLT48ZyBpZD0ibGlua19jb21wbGlhbmNlX29mZmljZXJfVUNfSFJfMDciPjxwYXRoIGQ9Ik0xMjguMzYsMzMzLjU5IEMxMzkuNDUsMzM5LjEzIDE1MS4yOCwzNDMuOTggMTYzLDM0NyBDMjQ2LjkzLDM2OC42IDI3Mi4yOSwzNTkuODMgMzU4LDM0NyBDMzkwLjg5LDM0Mi4wNyA0MjAuNTYwNiwzMzMuODY1NCA0NTAuMjEwNiwzMjMuOTM1NCAiIGZpbGw9Im5vbmUiIGlkPSJjb21wbGlhbmNlX29mZmljZXItdG8tVUNfSFJfMDctMyIgc3R5bGU9InN0cm9rZTojMTgxODE4O3N0cm9rZS13aWR0aDoxLjA7Ii8+PHBvbHlnb24gZmlsbD0iIzE4MTgxOCIgcG9pbnRzPSI0NTUuOSwzMjIuMDMsNDQ2LjA5NTYsMzIxLjA5NTIsNDUxLjE1ODgsMzIzLjYxNzksNDQ4LjYzNjIsMzI4LjY4MTEsNDU1LjksMzIyLjAzIiBzdHlsZT0ic3Ryb2tlOiMxODE4MTg7c3Ryb2tlLXdpZHRoOjEuMDsiLz48dGV4dCBmaWxsPSIjMDAwMDAwIiBmb250LWZhbWlseT0ic2Fucy1zZXJpZiIgZm9udC1zaXplPSIxMyIgbGVuZ3RoQWRqdXN0PSJzcGFjaW5nIiB0ZXh0TGVuZ3RoPSIxNjIiIHg9IjE3OS41IiB5PSIzNDUuMjg5MSI+VXBkYXRlIENvbXBsaWFuY2UgU3RhdHVzPC90ZXh0PjwvZz48IS0tbGluayBlbXBsb3llZSB0byBVQ19IUl8wOC0tPjxnIGlkPSJsaW5rX2VtcGxveWVlX1VDX0hSXzA4Ij48cGF0aCBkPSJNODkuNTEsMTU3MC41NCBDMTA1LjIxLDE1OTcuMDMgMTMwLjI0LDE2MzAuNDcgMTYzLDE2NDYgQzI2MS42OSwxNjkyLjc1IDM4Ny4zNzI1LDE2NzUuODU5NyA0NjEuNTEyNSwxNjU5LjQwOTcgIiBmaWxsPSJub25lIiBpZD0iZW1wbG95ZWUtdG8tVUNfSFJfMDgiIHN0eWxlPSJzdHJva2U6IzE4MTgxODtzdHJva2Utd2lkdGg6MS4wOyIvPjxwb2x5Z29uIGZpbGw9IiMxODE4MTgiIHBvaW50cz0iNDY3LjM3LDE2NTguMTEsNDU3LjcxNzIsMTY1Ni4xNTQ1LDQ2Mi40ODg3LDE2NTkuMTkzLDQ1OS40NTAxLDE2NjMuOTY0NSw0NjcuMzcsMTY1OC4xMSIgc3R5bGU9InN0cm9rZTojMTgxODE4O3N0cm9rZS13aWR0aDoxLjA7Ii8+PHRleHQgZmlsbD0iIzAwMDAwMCIgZm9udC1mYW1pbHk9InNhbnMtc2VyaWYiIGZvbnQtc2l6ZT0iMTMiIGxlbmd0aEFkanVzdD0ic3BhY2luZyIgdGV4dExlbmd0aD0iODAiIHg9IjIyMC41IiB5PSIxNjQ0LjI4OTEiPlZpZXcgUGF5c2xpcDwvdGV4dD48L2c+PCEtLWxpbmsgZW1wbG95ZWUgdG8gVUNfSFJfMDgtLT48ZyBpZD0ibGlua19lbXBsb3llZV9VQ19IUl8wOCI+PHBhdGggZD0iTTc5LjY0LDE1NzAuNyBDOTEuNDksMTYxMC4zNSAxMTYuMzksMTY3MC42OSAxNjMsMTY5OCBDMjY5LjgxLDE3NjAuNTcgNDE4LjMwNzMsMTY5OC42MzA1IDQ4NS41NTczLDE2NjQuMjYwNSAiIGZpbGw9Im5vbmUiIGlkPSJlbXBsb3llZS10by1VQ19IUl8wOC0xIiBzdHlsZT0ic3Ryb2tlOiMxODE4MTg7c3Ryb2tlLXdpZHRoOjEuMDsiLz48cG9seWdvbiBmaWxsPSIjMTgxODE4IiBwb2ludHM9IjQ5MC45LDE2NjEuNTMsNDgxLjA2NTYsMTY2Mi4wNjQsNDg2LjQ0NzgsMTY2My44MDU0LDQ4NC43MDYzLDE2NjkuMTg3Niw0OTAuOSwxNjYxLjUzIiBzdHlsZT0ic3Ryb2tlOiMxODE4MTg7c3Ryb2tlLXdpZHRoOjEuMDsiLz48dGV4dCBmaWxsPSIjMDAwMDAwIiBmb250LWZhbWlseT0ic2Fucy1zZXJpZiIgZm9udC1zaXplPSIxMyIgbGVuZ3RoQWRqdXN0PSJzcGFjaW5nIiB0ZXh0TGVuZ3RoPSIxMzQiIHg9IjE5My41IiB5PSIxNjk2LjI4OTEiPlZpZXcgUGF5bWVudCBIaXN0b3J5PC90ZXh0PjwvZz48IS0tbGluayBlbXBsb3llZSB0byBVQ19IUl8wOC0tPjxnIGlkPSJsaW5rX2VtcGxveWVlX1VDX0hSXzA4Ij48cGF0aCBkPSJNOTguMjQsMTU0Ni44NyBDMTE2LjMxLDE1NTUuNDQgMTQwLjYsMTU2Ni4wNyAxNjMsMTU3MyBDMjU5LjM1LDE2MDIuNzcgMzY4LjI4MTgsMTYyMS41NzEyIDQ0Mi4yNzE4LDE2MzIuMjcxMiAiIGZpbGw9Im5vbmUiIGlkPSJlbXBsb3llZS10by1VQ19IUl8wOC0yIiBzdHlsZT0ic3Ryb2tlOiMxODE4MTg7c3Ryb2tlLXdpZHRoOjEuMDsiLz48cG9seWdvbiBmaWxsPSIjMTgxODE4IiBwb2ludHM9IjQ0OC4yMSwxNjMzLjEzLDQzOS44NzUyLDE2MjcuODgzMSw0NDMuMjYxNSwxNjMyLjQxNDQsNDM4LjczMDIsMTYzNS44MDA3LDQ0OC4yMSwxNjMzLjEzIiBzdHlsZT0ic3Ryb2tlOiMxODE4MTg7c3Ryb2tlLXdpZHRoOjEuMDsiLz48dGV4dCBmaWxsPSIjMDAwMDAwIiBmb250LWZhbWlseT0ic2Fucy1zZXJpZiIgZm9udC1zaXplPSIxMyIgbGVuZ3RoQWRqdXN0PSJzcGFjaW5nIiB0ZXh0TGVuZ3RoPSIxMDgiIHg9IjIwNi41IiB5PSIxNTcxLjI4OTEiPkRvd25sb2FkIFBheXNsaXA8L3RleHQ+PC9nPjwhLS1TUkM9W1pQTERSemltMzhSbF9YTDJ4V01zVmNFNzBLTUlqV0ZNaE4zUU5HRE1QWEFYaWtIOVNaaF8tcjdvYno4YVRjdzlfQm1JSFJ3YTlBdVNTdmVQaVR1dWJXYzN0MGNqYVdJdXF1UkR5cUJnMmY2MVBUWnlSWnZEN2JGczEwaE1RMlIteXlPaXlfZmwxRG5ia0wzMkVXRXFxYzhHQnFSbWl6NGhqOVFFMXpjb0hSSk1lYkREYUdYRzdEZGxyS2htOVczVUJJenJsVG1BZGc0b01pZXdjaTBNektlVElmQUs1WmJPUEFfSnZNRXdfRkJMOHZDS192UGU3TmlIVUpYZXlYYXgzelhoYU83M0ZiQ19yNGdSNzdtTXpuR05HSjdMQVlrdk95emUwa2VsQ2otMkIwLUJCZUVlSlpMeENLMnZLc2tWaEJNMXRFeFhMcGwxX3FKT3VYdnA3UFdzQlJHTHpwYk13cHRtZldjdUlfWUpMZTlvd1lDMGJSNEsyc3RTOFVMaktGdUgtQzdlZDFvTE9wRHE4Mkg1ZEJITU9jVGR0X2thVnNEcHZUMm1EbFE2RnFlbG9oVFNrMVBGVVdELTFreUFpajRNSm8xX1FJVE1MTFZDdjBYd3haVmJGY2J6dExGYXNjSHNHMzdGQURmM0ZYZEdCQVh5UkJlMWpTUVhoR181N1JURXA1X3VSVDZuMW10SVplNmpMdGpfWllkOEpMa0g4Umo3cER3MGx1X24zd1pHLTB3QXN3N3NMUlo2cGhJOG5QVHo0UmdrSUQ3Z3FsMHdMdUZBMVR6V0xpZ2VlblByWEVESUtsMXRTWktQZHVrWUl5Z1dma2NSa2N0ZmVDQ3pTRE5yR0VaUnBoMzdzQU8zVGs3M0JsNXVZYmxWWndWWVJUakdzM0RLTFFxUnVGVENrM0RiT19oUUVtaWFCd0tsXzA4YTY0NHI2LUlSQUtNWFU0RndHZUs5ejBCX25mSXptdzJvS1hHWi0zcm04T05wV2JidTMtZDhHYmoxVGpuX09jQm5KTEpkVmNJVThFZTJaMFBqdEc3czFGTFNzVEJHdlJHS2xBOHRSZUM2SnBrdFVSZ1lLblRxeFZBOEVNejlxU3ZwZHlQSEEwcHpILWU4UlFnWnk0bl9BQWFYUXRWejNtMDBdLS0+PC9nPjwvc3ZnPg==;" vertex="1" parent="1">
            <mxGeometry x="91" y="80" width="668" height="1767" as="geometry" />
          </mxCell>
        </UserObject>
      </root>
    </mxGraphModel>
  </diagram>
</mxfile>
